<?xml version="1.0" encoding="UTF-8" standalone="no"?>
<!DOCTYPE svg PUBLIC "-//W3C//DTD SVG 1.1//EN"
 "http://www.w3.org/Graphics/SVG/1.1/DTD/svg11.dtd">
<!-- Generated by graphviz version 12.2.1 (0)
 -->
<!-- Title: src/devices/BME280.cpp Pages: 1 -->
<svg width="302pt" height="288pt"
 viewBox="0.00 0.00 302.25 288.00" xmlns="http://www.w3.org/2000/svg" xmlns:xlink="http://www.w3.org/1999/xlink">
<g id="graph0" class="graph" transform="scale(1 1) rotate(0) translate(4 284)">
<title>src/devices/BME280.cpp</title>
<!-- Node1 -->
<g id="Node000001" class="node">
<title>Node1</title>
<g id="a_Node000001"><a xlink:title=" ">
<polygon fill="#999999" stroke="#666666" points="211.38,-280 85.88,-280 85.88,-260 211.38,-260 211.38,-280"/>
<text text-anchor="middle" x="148.62" y="-266.5" font-family="Helvetica,sans-Serif" font-size="10.00">src/devices/BME280.cpp</text>
</a>
</g>
</g>
<!-- Node2 -->
<g id="Node000002" class="node">
<title>Node2</title>
<g id="a_Node000002"><a xlink:href="BME280_8hpp.html" target="_top" xlink:title=" ">
<polygon fill="white" stroke="#666666" points="216.25,-224 81,-224 81,-204 216.25,-204 216.25,-224"/>
<text text-anchor="middle" x="148.62" y="-210.5" font-family="Helvetica,sans-Serif" font-size="10.00">tojhal/devices/BME280.hpp</text>
</a>
</g>
</g>
<!-- Node1&#45;&gt;Node2 -->
<g id="edge1_Node000001_Node000002" class="edge">
<title>Node1&#45;&gt;Node2</title>
<g id="a_edge1_Node000001_Node000002"><a xlink:title=" ">
<path fill="none" stroke="#63b8ff" d="M148.62,-259.59C148.62,-253.01 148.62,-243.96 148.62,-235.73"/>
<polygon fill="#63b8ff" stroke="#63b8ff" points="152.13,-235.81 148.63,-225.81 145.13,-235.81 152.13,-235.81"/>
</a>
</g>
</g>
<!-- Node3 -->
<g id="Node000003" class="node">
<title>Node3</title>
<g id="a_Node000003"><a xlink:href="I2C_8hpp.html" target="_top" xlink:title=" ">
<polygon fill="white" stroke="#666666" points="134.88,-168 12.38,-168 12.38,-136 134.88,-136 134.88,-168"/>
<text text-anchor="start" x="20.38" y="-154.5" font-family="Helvetica,sans-Serif" font-size="10.00">tojhal/comms_interfaces</text>
<text text-anchor="middle" x="73.62" y="-142.5" font-family="Helvetica,sans-Serif" font-size="10.00">/I2C.hpp</text>
</a>
</g>
</g>
<!-- Node2&#45;&gt;Node3 -->
<g id="edge2_Node000002_Node000003" class="edge">
<title>Node2&#45;&gt;Node3</title>
<g id="a_edge2_Node000002_Node000003"><a xlink:title=" ">
<path fill="none" stroke="#63b8ff" d="M136.91,-203.62C127.52,-196.11 113.95,-185.26 101.78,-175.52"/>
<polygon fill="#63b8ff" stroke="#63b8ff" points="104.02,-172.83 94.02,-169.32 99.65,-178.3 104.02,-172.83"/>
</a>
</g>
</g>
<!-- Node7 -->
<g id="Node000007" class="node">
<title>Node7</title>
<g id="a_Node000007"><a xlink:href="EnvironmentalSensor_8hpp.html" target="_top" xlink:title=" ">
<polygon fill="white" stroke="#666666" points="294.25,-168 153,-168 153,-136 294.25,-136 294.25,-168"/>
<text text-anchor="start" x="161" y="-154.5" font-family="Helvetica,sans-Serif" font-size="10.00">tojhal/devices/Environmental</text>
<text text-anchor="middle" x="223.62" y="-142.5" font-family="Helvetica,sans-Serif" font-size="10.00">Sensor.hpp</text>
</a>
</g>
</g>
<!-- Node2&#45;&gt;Node7 -->
<g id="edge6_Node000002_Node000007" class="edge">
<title>Node2&#45;&gt;Node7</title>
<g id="a_edge6_Node000002_Node000007"><a xlink:title=" ">
<path fill="none" stroke="#63b8ff" d="M160.34,-203.62C169.73,-196.11 183.3,-185.26 195.47,-175.52"/>
<polygon fill="#63b8ff" stroke="#63b8ff" points="197.6,-178.3 203.23,-169.32 193.23,-172.83 197.6,-178.3"/>
</a>
</g>
</g>
<!-- Node4 -->
<g id="Node000004" class="node">
<title>Node4</title>
<g id="a_Node000004"><a xlink:href="RegisterInterface_8hpp.html" target="_top" xlink:title=" ">
<polygon fill="white" stroke="#666666" points="134.88,-100 12.38,-100 12.38,-68 134.88,-68 134.88,-100"/>
<text text-anchor="start" x="20.38" y="-86.5" font-family="Helvetica,sans-Serif" font-size="10.00">tojhal/comms_interfaces</text>
<text text-anchor="middle" x="73.62" y="-74.5" font-family="Helvetica,sans-Serif" font-size="10.00">/RegisterInterface.hpp</text>
</a>
</g>
</g>
<!-- Node3&#45;&gt;Node4 -->
<g id="edge3_Node000003_Node000004" class="edge">
<title>Node3&#45;&gt;Node4</title>
<g id="a_edge3_Node000003_Node000004"><a xlink:title=" ">
<path fill="none" stroke="#63b8ff" d="M73.62,-135.69C73.62,-128.53 73.62,-119.79 73.62,-111.59"/>
<polygon fill="#63b8ff" stroke="#63b8ff" points="77.13,-111.74 73.63,-101.74 70.13,-111.74 77.13,-111.74"/>
</a>
</g>
</g>
<!-- Node5 -->
<g id="Node000005" class="node">
<title>Node5</title>
<g id="a_Node000005"><a xlink:title=" ">
<polygon fill="#e0e0e0" stroke="#999999" points="45.25,-26 0,-26 0,-6 45.25,-6 45.25,-26"/>
<text text-anchor="middle" x="22.62" y="-12.5" font-family="Helvetica,sans-Serif" font-size="10.00">cstdint</text>
</a>
</g>
</g>
<!-- Node4&#45;&gt;Node5 -->
<g id="edge4_Node000004_Node000005" class="edge">
<title>Node4&#45;&gt;Node5</title>
<g id="a_edge4_Node000004_Node000005"><a xlink:title=" ">
<path fill="none" stroke="#63b8ff" d="M61.8,-67.69C54.3,-58 44.58,-45.41 36.69,-35.2"/>
<polygon fill="#63b8ff" stroke="#63b8ff" points="39.63,-33.29 30.75,-27.51 34.09,-37.57 39.63,-33.29"/>
</a>
</g>
</g>
<!-- Node6 -->
<g id="Node000006" class="node">
<title>Node6</title>
<g id="a_Node000006"><a xlink:href="CommsInterface_8hpp.html" target="_top" xlink:title=" ">
<polygon fill="white" stroke="#666666" points="185.88,-32 63.38,-32 63.38,0 185.88,0 185.88,-32"/>
<text text-anchor="start" x="71.38" y="-18.5" font-family="Helvetica,sans-Serif" font-size="10.00">tojhal/comms_interfaces</text>
<text text-anchor="middle" x="124.62" y="-6.5" font-family="Helvetica,sans-Serif" font-size="10.00">/CommsInterface.hpp</text>
</a>
</g>
</g>
<!-- Node4&#45;&gt;Node6 -->
<g id="edge5_Node000004_Node000006" class="edge">
<title>Node4&#45;&gt;Node6</title>
<g id="a_edge5_Node000004_Node000006"><a xlink:title=" ">
<path fill="none" stroke="#63b8ff" d="M85.45,-67.69C91.5,-59.86 99.01,-50.15 105.83,-41.32"/>
<polygon fill="#63b8ff" stroke="#63b8ff" points="108.59,-43.48 111.94,-33.42 103.05,-39.2 108.59,-43.48"/>
</a>
</g>
</g>
<!-- Node8 -->
<g id="Node000008" class="node">
<title>Node8</title>
<g id="a_Node000008"><a xlink:href="Device_8hpp.html" target="_top" xlink:title=" ">
<polygon fill="white" stroke="#666666" points="287.88,-94 159.38,-94 159.38,-74 287.88,-74 287.88,-94"/>
<text text-anchor="middle" x="223.62" y="-80.5" font-family="Helvetica,sans-Serif" font-size="10.00">tojhal/devices/Device.hpp</text>
</a>
</g>
</g>
<!-- Node7&#45;&gt;Node8 -->
<g id="edge7_Node000007_Node000008" class="edge">
<title>Node7&#45;&gt;Node8</title>
<g id="a_edge7_Node000007_Node000008"><a xlink:title=" ">
<path fill="none" stroke="#63b8ff" d="M223.62,-135.69C223.62,-126.8 223.62,-115.46 223.62,-105.77"/>
<polygon fill="#63b8ff" stroke="#63b8ff" points="227.13,-105.83 223.63,-95.83 220.13,-105.83 227.13,-105.83"/>
</a>
</g>
</g>
</g>
</svg>
