<?xml version="1.0" encoding="UTF-8" standalone="no"?>
<!DOCTYPE svg PUBLIC "-//W3C//DTD SVG 1.1//EN"
 "http://www.w3.org/Graphics/SVG/1.1/DTD/svg11.dtd">
<!-- Generated by graphviz version 12.2.1 (0)
 -->
<!-- Title: tojhal::devices::BME280 Pages: 1 -->
<svg width="167pt" height="852pt"
 viewBox="0.00 0.00 166.75 852.00" xmlns="http://www.w3.org/2000/svg" xmlns:xlink="http://www.w3.org/1999/xlink">
<g id="graph0" class="graph" transform="scale(1 1) rotate(0) translate(4 848)">
<title>tojhal::devices::BME280</title>
<!-- Node1 -->
<g id="Node000001" class="node">
<title>Node1</title>
<g id="a_Node000001"><a xlink:title="Bosch BME280 sensor interface.">
<polygon fill="#999999" stroke="none" points="136.62,-136 22.12,-136 22.12,0 136.62,0 136.62,-136"/>
<text text-anchor="start" x="26.12" y="-122.5" font-family="Helvetica,sans-Serif" font-size="10.00">tojhal::devices::BME280</text>
<text text-anchor="start" x="77.88" y="-106.5" font-family="Helvetica,sans-Serif" font-size="10.00"> </text>
<text text-anchor="start" x="27.94" y="-90.5" font-family="Helvetica,sans-Serif" font-size="10.00">+</text>
<text text-anchor="start" x="39.75" y="-90.5" font-family="Helvetica,sans-Serif" font-size="10.00">BME280()</text>
<text text-anchor="start" x="27.94" y="-74.5" font-family="Helvetica,sans-Serif" font-size="10.00">+</text>
<text text-anchor="start" x="39.75" y="-74.5" font-family="Helvetica,sans-Serif" font-size="10.00">float getTemperature</text>
<text text-anchor="start" x="39.75" y="-62.5" font-family="Helvetica,sans-Serif" font-size="10.00">() override</text>
<text text-anchor="start" x="27.94" y="-46.5" font-family="Helvetica,sans-Serif" font-size="10.00">+</text>
<text text-anchor="start" x="39.75" y="-46.5" font-family="Helvetica,sans-Serif" font-size="10.00">float getHumidity()</text>
<text text-anchor="start" x="39.75" y="-34.5" font-family="Helvetica,sans-Serif" font-size="10.00"> override</text>
<text text-anchor="start" x="27.94" y="-18.5" font-family="Helvetica,sans-Serif" font-size="10.00">+</text>
<text text-anchor="start" x="39.75" y="-18.5" font-family="Helvetica,sans-Serif" font-size="10.00">float getPressure()</text>
<text text-anchor="start" x="39.75" y="-6.5" font-family="Helvetica,sans-Serif" font-size="10.00"> override</text>
<polygon fill="#666666" stroke="#666666" points="22.12,-118 22.12,-118 136.62,-118 136.62,-118 22.12,-118"/>
<polygon fill="#666666" stroke="#666666" points="22.12,-102 22.12,-102 136.62,-102 136.62,-102 22.12,-102"/>
<polygon fill="none" stroke="#666666" points="22.12,0 22.12,-136 136.62,-136 136.62,0 22.12,0"/>
</a>
</g>
</g>
<!-- Node2 -->
<g id="Node000002" class="node">
<title>Node2</title>
<g id="a_Node000002"><a xlink:href="classtojhal_1_1devices_1_1EnvironmentalSensor.html" target="_top" xlink:title=" ">
<polygon fill="white" stroke="none" points="158.75,-269 0,-269 0,-173 158.75,-173 158.75,-269"/>
<text text-anchor="start" x="4" y="-255.5" font-family="Helvetica,sans-Serif" font-size="10.00">tojhal::devices::Environmental</text>
<text text-anchor="start" x="4" y="-243.5" font-family="Helvetica,sans-Serif" font-size="10.00">Sensor&lt; comms_interfaces::I2C &gt;</text>
<text text-anchor="start" x="77.88" y="-227.5" font-family="Helvetica,sans-Serif" font-size="10.00"> </text>
<text text-anchor="start" x="5.44" y="-211.5" font-family="Helvetica,sans-Serif" font-size="10.00">#</text>
<text text-anchor="start" x="16.12" y="-211.5" font-family="Helvetica,sans-Serif" font-size="10.00">virtual float getTemperature()=0</text>
<text text-anchor="start" x="5.44" y="-195.5" font-family="Helvetica,sans-Serif" font-size="10.00">#</text>
<text text-anchor="start" x="16.12" y="-195.5" font-family="Helvetica,sans-Serif" font-size="10.00">virtual float getHumidity()=0</text>
<text text-anchor="start" x="5.44" y="-179.5" font-family="Helvetica,sans-Serif" font-size="10.00">#</text>
<text text-anchor="start" x="16.12" y="-179.5" font-family="Helvetica,sans-Serif" font-size="10.00">virtual float getPressure()=0</text>
<polygon fill="#666666" stroke="#666666" points="0,-239 0,-239 158.75,-239 158.75,-239 0,-239"/>
<polygon fill="#666666" stroke="#666666" points="0,-223 0,-223 158.75,-223 158.75,-223 0,-223"/>
<polygon fill="none" stroke="#666666" points="0,-173 0,-269 158.75,-269 158.75,-173 0,-173"/>
</a>
</g>
</g>
<!-- Node2&#45;&gt;Node1 -->
<g id="edge1_Node000001_Node000002" class="edge">
<title>Node2&#45;&gt;Node1</title>
<g id="a_edge1_Node000001_Node000002"><a xlink:title=" ">
<path fill="none" stroke="#63b8ff" d="M79.38,-161.74C79.38,-153.27 79.38,-144.5 79.38,-135.88"/>
<polygon fill="none" stroke="#63b8ff" points="75.88,-161.54 79.38,-171.54 82.88,-161.54 75.88,-161.54"/>
</a>
</g>
</g>
<!-- Node3 -->
<g id="Node000003" class="node">
<title>Node3</title>
<g id="a_Node000003"><a xlink:href="classtojhal_1_1devices_1_1Device.html" target="_top" xlink:title=" ">
<polygon fill="white" stroke="none" points="143.38,-370 15.38,-370 15.38,-306 143.38,-306 143.38,-370"/>
<text text-anchor="start" x="19.38" y="-356.5" font-family="Helvetica,sans-Serif" font-size="10.00">tojhal::devices::Device</text>
<text text-anchor="start" x="19.38" y="-344.5" font-family="Helvetica,sans-Serif" font-size="10.00">&lt; comms_interfaces::I2C &gt;</text>
<text text-anchor="start" x="77.88" y="-328.5" font-family="Helvetica,sans-Serif" font-size="10.00"> </text>
<text text-anchor="start" x="77.88" y="-312.5" font-family="Helvetica,sans-Serif" font-size="10.00"> </text>
<polygon fill="#666666" stroke="#666666" points="15.38,-340 15.38,-340 143.38,-340 143.38,-340 15.38,-340"/>
<polygon fill="#666666" stroke="#666666" points="15.38,-324 15.38,-324 143.38,-324 143.38,-324 15.38,-324"/>
<polygon fill="none" stroke="#666666" points="15.38,-306 15.38,-370 143.38,-370 143.38,-306 15.38,-306"/>
</a>
</g>
</g>
<!-- Node3&#45;&gt;Node2 -->
<g id="edge2_Node000002_Node000003" class="edge">
<title>Node3&#45;&gt;Node2</title>
<g id="a_edge2_Node000002_Node000003"><a xlink:title=" ">
<path fill="none" stroke="#63b8ff" d="M79.38,-294.71C79.38,-286.32 79.38,-277.46 79.38,-268.93"/>
<polygon fill="none" stroke="#63b8ff" points="75.88,-294.67 79.38,-304.67 82.88,-294.67 75.88,-294.67"/>
</a>
</g>
</g>
<!-- Node4 -->
<g id="Node000004" class="node">
<title>Node4</title>
<g id="a_Node000004"><a xlink:href="classtojhal_1_1comms__interfaces_1_1I2C.html" target="_top" xlink:title="I2C communication interface.">
<polygon fill="white" stroke="none" points="149,-578 9.75,-578 9.75,-418 149,-418 149,-578"/>
<text text-anchor="start" x="13.75" y="-564.5" font-family="Helvetica,sans-Serif" font-size="10.00">tojhal::comms_interfaces::I2C</text>
<text text-anchor="start" x="77.88" y="-548.5" font-family="Helvetica,sans-Serif" font-size="10.00"> </text>
<text text-anchor="start" x="17.81" y="-532.5" font-family="Helvetica,sans-Serif" font-size="10.00">+</text>
<text text-anchor="start" x="31.88" y="-532.5" font-family="Helvetica,sans-Serif" font-size="10.00">I2C()</text>
<text text-anchor="start" x="17.81" y="-516.5" font-family="Helvetica,sans-Serif" font-size="10.00">+</text>
<text text-anchor="start" x="31.88" y="-516.5" font-family="Helvetica,sans-Serif" font-size="10.00">I2C(uint8_t device)</text>
<text text-anchor="start" x="17.81" y="-500.5" font-family="Helvetica,sans-Serif" font-size="10.00">+</text>
<text text-anchor="start" x="31.88" y="-500.5" font-family="Helvetica,sans-Serif" font-size="10.00">void readRegister(uint8</text>
<text text-anchor="start" x="31.88" y="-488.5" font-family="Helvetica,sans-Serif" font-size="10.00">_t address, uint32_t len,</text>
<text text-anchor="start" x="31.88" y="-476.5" font-family="Helvetica,sans-Serif" font-size="10.00"> char *buffer) override</text>
<text text-anchor="start" x="17.81" y="-460.5" font-family="Helvetica,sans-Serif" font-size="10.00">+</text>
<text text-anchor="start" x="31.88" y="-460.5" font-family="Helvetica,sans-Serif" font-size="10.00">void writeRegister</text>
<text text-anchor="start" x="31.88" y="-448.5" font-family="Helvetica,sans-Serif" font-size="10.00">(uint8_t address, char</text>
<text text-anchor="start" x="31.88" y="-436.5" font-family="Helvetica,sans-Serif" font-size="10.00"> *buffer, uint32_t len)</text>
<text text-anchor="start" x="31.88" y="-424.5" font-family="Helvetica,sans-Serif" font-size="10.00"> override</text>
<polygon fill="#666666" stroke="#666666" points="9.75,-560 9.75,-560 149,-560 149,-560 9.75,-560"/>
<polygon fill="#666666" stroke="#666666" points="9.75,-544 9.75,-544 149,-544 149,-544 9.75,-544"/>
<polygon fill="none" stroke="#666666" points="9.75,-418 9.75,-578 149,-578 149,-418 9.75,-418"/>
</a>
</g>
</g>
<!-- Node4&#45;&gt;Node3 -->
<g id="edge3_Node000003_Node000004" class="edge">
<title>Node4&#45;&gt;Node3</title>
<g id="a_edge3_Node000003_Node000004"><a xlink:title=" ">
<path fill="none" stroke="#63b8ff" d="M79.38,-418C79.38,-405.82 79.38,-393.65 79.38,-382.63"/>
<polygon fill="none" stroke="#63b8ff" points="79.38,-382.74 75.38,-376.74 79.38,-370.74 83.38,-376.74 79.38,-382.74"/>
</a>
</g>
<text text-anchor="middle" x="116.88" y="-390.5" font-family="Helvetica,sans-Serif" font-size="10.00" fill="grey"> #deviceInterface</text>
</g>
<!-- Node5 -->
<g id="Node000005" class="node">
<title>Node5</title>
<g id="a_Node000005"><a xlink:href="classtojhal_1_1comms__interfaces_1_1RegisterInterface.html" target="_top" xlink:title="Communication interface over registers. (Eg: I2C, SPI)">
<polygon fill="white" stroke="none" points="152.12,-743 6.62,-743 6.62,-615 152.12,-615 152.12,-743"/>
<text text-anchor="start" x="24.62" y="-729.5" font-family="Helvetica,sans-Serif" font-size="10.00">tojhal::comms_interfaces</text>
<text text-anchor="start" x="38.88" y="-717.5" font-family="Helvetica,sans-Serif" font-size="10.00">::RegisterInterface</text>
<text text-anchor="start" x="10.62" y="-701.5" font-family="Helvetica,sans-Serif" font-size="10.00">#</text>
<text text-anchor="start" x="19.88" y="-701.5" font-family="Helvetica,sans-Serif" font-size="10.00">uint8_t deviceAddr</text>
<text text-anchor="start" x="10.62" y="-685.5" font-family="Helvetica,sans-Serif" font-size="10.00">#</text>
<text text-anchor="start" x="19.88" y="-685.5" font-family="Helvetica,sans-Serif" font-size="10.00">virtual void readRegister</text>
<text text-anchor="start" x="19.88" y="-673.5" font-family="Helvetica,sans-Serif" font-size="10.00">(uint8_t address, uint32</text>
<text text-anchor="start" x="19.88" y="-661.5" font-family="Helvetica,sans-Serif" font-size="10.00">_t len, char *buffer)=0</text>
<text text-anchor="start" x="10.62" y="-645.5" font-family="Helvetica,sans-Serif" font-size="10.00">#</text>
<text text-anchor="start" x="19.88" y="-645.5" font-family="Helvetica,sans-Serif" font-size="10.00">virtual void writeRegister</text>
<text text-anchor="start" x="19.88" y="-633.5" font-family="Helvetica,sans-Serif" font-size="10.00">(uint8_t address, char *buffer,</text>
<text text-anchor="start" x="19.88" y="-621.5" font-family="Helvetica,sans-Serif" font-size="10.00"> uint32_t len)=0</text>
<polygon fill="#666666" stroke="#666666" points="6.62,-713 6.62,-713 152.12,-713 152.12,-713 6.62,-713"/>
<polygon fill="#666666" stroke="#666666" points="6.62,-697 6.62,-697 17.88,-697 17.88,-697 6.62,-697"/>
<polygon fill="#666666" stroke="#666666" points="17.88,-697 17.88,-697 152.12,-697 152.12,-697 17.88,-697"/>
<polygon fill="none" stroke="#666666" points="6.62,-615 6.62,-743 152.12,-743 152.12,-615 6.62,-615"/>
</a>
</g>
</g>
<!-- Node5&#45;&gt;Node4 -->
<g id="edge4_Node000004_Node000005" class="edge">
<title>Node5&#45;&gt;Node4</title>
<g id="a_edge4_Node000004_Node000005"><a xlink:title=" ">
<path fill="none" stroke="#63b8ff" d="M79.38,-603.63C79.38,-595.08 79.38,-586.34 79.38,-577.74"/>
<polygon fill="none" stroke="#63b8ff" points="75.88,-603.63 79.38,-613.63 82.88,-603.63 75.88,-603.63"/>
</a>
</g>
</g>
<!-- Node6 -->
<g id="Node000006" class="node">
<title>Node6</title>
<g id="a_Node000006"><a xlink:href="classtojhal_1_1comms__interfaces_1_1CommsInterface.html" target="_top" xlink:title="Communications interface abstract class.">
<polygon fill="white" stroke="none" points="138.12,-844 20.62,-844 20.62,-780 138.12,-780 138.12,-844"/>
<text text-anchor="start" x="24.62" y="-830.5" font-family="Helvetica,sans-Serif" font-size="10.00">tojhal::comms_interfaces</text>
<text text-anchor="start" x="40" y="-818.5" font-family="Helvetica,sans-Serif" font-size="10.00">::CommsInterface</text>
<text text-anchor="start" x="77.88" y="-802.5" font-family="Helvetica,sans-Serif" font-size="10.00"> </text>
<text text-anchor="start" x="77.88" y="-786.5" font-family="Helvetica,sans-Serif" font-size="10.00"> </text>
<polygon fill="#666666" stroke="#666666" points="20.62,-814 20.62,-814 138.12,-814 138.12,-814 20.62,-814"/>
<polygon fill="#666666" stroke="#666666" points="20.62,-798 20.62,-798 138.12,-798 138.12,-798 20.62,-798"/>
<polygon fill="none" stroke="#666666" points="20.62,-780 20.62,-844 138.12,-844 138.12,-780 20.62,-780"/>
</a>
</g>
</g>
<!-- Node6&#45;&gt;Node5 -->
<g id="edge5_Node000005_Node000006" class="edge">
<title>Node6&#45;&gt;Node5</title>
<g id="a_edge5_Node000005_Node000006"><a xlink:title=" ">
<path fill="none" stroke="#63b8ff" d="M79.38,-768.93C79.38,-760.58 79.38,-751.63 79.38,-742.76"/>
<polygon fill="none" stroke="#63b8ff" points="75.88,-768.77 79.38,-778.77 82.88,-768.77 75.88,-768.77"/>
</a>
</g>
</g>
</g>
</svg>
