<?xml version="1.0" encoding="UTF-8" standalone="no"?>
<!DOCTYPE svg PUBLIC "-//W3C//DTD SVG 1.1//EN"
 "http://www.w3.org/Graphics/SVG/1.1/DTD/svg11.dtd">
<!-- Generated by graphviz version 12.2.1 (0)
 -->
<!-- Title: tojhal::comms_interfaces::PubSubInterface Pages: 1 -->
<svg width="126pt" height="308pt"
 viewBox="0.00 0.00 125.50 308.00" xmlns="http://www.w3.org/2000/svg" xmlns:xlink="http://www.w3.org/1999/xlink">
<g id="graph0" class="graph" transform="scale(1 1) rotate(0) translate(4 304)">
<title>tojhal::comms_interfaces::PubSubInterface</title>
<!-- Node1 -->
<g id="Node000001" class="node">
<title>Node1</title>
<g id="a_Node000001"><a xlink:title="Abstract pub/sub communication interface.">
<polygon fill="#999999" stroke="none" points="117.5,-200 0,-200 0,-100 117.5,-100 117.5,-200"/>
<text text-anchor="start" x="4" y="-186.5" font-family="Helvetica,sans-Serif" font-size="10.00">tojhal::comms_interfaces</text>
<text text-anchor="start" x="19.38" y="-174.5" font-family="Helvetica,sans-Serif" font-size="10.00">::PubSubInterface</text>
<text text-anchor="start" x="57.25" y="-158.5" font-family="Helvetica,sans-Serif" font-size="10.00"> </text>
<text text-anchor="start" x="7.88" y="-142.5" font-family="Helvetica,sans-Serif" font-size="10.00">#</text>
<text text-anchor="start" x="21" y="-142.5" font-family="Helvetica,sans-Serif" font-size="10.00">void publish(const</text>
<text text-anchor="start" x="21" y="-130.5" font-family="Helvetica,sans-Serif" font-size="10.00"> std::string &amp;topic,</text>
<text text-anchor="start" x="21" y="-118.5" font-family="Helvetica,sans-Serif" font-size="10.00"> char *buffer, uint32</text>
<text text-anchor="start" x="21" y="-106.5" font-family="Helvetica,sans-Serif" font-size="10.00">_t len)</text>
<polygon fill="#666666" stroke="#666666" points="0,-170 0,-170 117.5,-170 117.5,-170 0,-170"/>
<polygon fill="#666666" stroke="#666666" points="0,-154 0,-154 117.5,-154 117.5,-154 0,-154"/>
<polygon fill="none" stroke="#666666" points="0,-100 0,-200 117.5,-200 117.5,-100 0,-100"/>
</a>
</g>
</g>
<!-- Node3 -->
<g id="Node000003" class="node">
<title>Node3</title>
<g id="a_Node000003"><a xlink:href="classtojhal_1_1comms__interfaces_1_1ZeroMQ.html" target="_top" xlink:title=" ">
<polygon fill="white" stroke="none" points="117.5,-64 0,-64 0,0 117.5,0 117.5,-64"/>
<text text-anchor="start" x="4" y="-50.5" font-family="Helvetica,sans-Serif" font-size="10.00">tojhal::comms_interfaces</text>
<text text-anchor="start" x="38.12" y="-38.5" font-family="Helvetica,sans-Serif" font-size="10.00">::ZeroMQ</text>
<text text-anchor="start" x="57.25" y="-22.5" font-family="Helvetica,sans-Serif" font-size="10.00"> </text>
<text text-anchor="start" x="57.25" y="-6.5" font-family="Helvetica,sans-Serif" font-size="10.00"> </text>
<polygon fill="#666666" stroke="#666666" points="0,-34 0,-34 117.5,-34 117.5,-34 0,-34"/>
<polygon fill="#666666" stroke="#666666" points="0,-18 0,-18 117.5,-18 117.5,-18 0,-18"/>
<polygon fill="none" stroke="#666666" points="0,0 0,-64 117.5,-64 117.5,0 0,0"/>
</a>
</g>
</g>
<!-- Node1&#45;&gt;Node3 -->
<g id="edge2_Node000001_Node000003" class="edge">
<title>Node1&#45;&gt;Node3</title>
<g id="a_edge2_Node000001_Node000003"><a xlink:title=" ">
<path fill="none" stroke="#63b8ff" d="M58.75,-88.84C58.75,-80.23 58.75,-71.68 58.75,-63.95"/>
<polygon fill="none" stroke="#63b8ff" points="55.25,-88.63 58.75,-98.63 62.25,-88.63 55.25,-88.63"/>
</a>
</g>
</g>
<!-- Node2 -->
<g id="Node000002" class="node">
<title>Node2</title>
<g id="a_Node000002"><a xlink:href="classtojhal_1_1comms__interfaces_1_1CommsInterface.html" target="_top" xlink:title="Communications interface abstract class.">
<polygon fill="white" stroke="none" points="117.5,-300 0,-300 0,-236 117.5,-236 117.5,-300"/>
<text text-anchor="start" x="4" y="-286.5" font-family="Helvetica,sans-Serif" font-size="10.00">tojhal::comms_interfaces</text>
<text text-anchor="start" x="19.38" y="-274.5" font-family="Helvetica,sans-Serif" font-size="10.00">::CommsInterface</text>
<text text-anchor="start" x="57.25" y="-258.5" font-family="Helvetica,sans-Serif" font-size="10.00"> </text>
<text text-anchor="start" x="57.25" y="-242.5" font-family="Helvetica,sans-Serif" font-size="10.00"> </text>
<polygon fill="#666666" stroke="#666666" points="0,-270 0,-270 117.5,-270 117.5,-270 0,-270"/>
<polygon fill="#666666" stroke="#666666" points="0,-254 0,-254 117.5,-254 117.5,-254 0,-254"/>
<polygon fill="none" stroke="#666666" points="0,-236 0,-300 117.5,-300 117.5,-236 0,-236"/>
</a>
</g>
</g>
<!-- Node2&#45;&gt;Node1 -->
<g id="edge1_Node000001_Node000002" class="edge">
<title>Node2&#45;&gt;Node1</title>
<g id="a_edge1_Node000001_Node000002"><a xlink:title=" ">
<path fill="none" stroke="#63b8ff" d="M58.75,-224.77C58.75,-216.69 58.75,-208.16 58.75,-199.89"/>
<polygon fill="none" stroke="#63b8ff" points="55.25,-224.71 58.75,-234.71 62.25,-224.71 55.25,-224.71"/>
</a>
</g>
</g>
</g>
</svg>
