<?xml version="1.0" encoding="UTF-8" standalone="no"?>
<!DOCTYPE svg PUBLIC "-//W3C//DTD SVG 1.1//EN"
 "http://www.w3.org/Graphics/SVG/1.1/DTD/svg11.dtd">
<!-- Generated by graphviz version 12.2.1 (0)
 -->
<!-- Title: tojhal::devices::BME280 Pages: 1 -->
<!--zoomable 852 -->

<svg id="main" version="1.1" xmlns="http://www.w3.org/2000/svg" xmlns:xlink="http://www.w3.org/1999/xlink" xml:space="preserve" onload="init(evt)">

<style type="text/css"><![CDATA[
.node, .edge {opacity: 0.7;}
.node.selected, .edge.selected {opacity: 1;}
.edge:hover path { stroke: red; }
.edge:hover polygon { stroke: red; fill: red; }
]]></style>

<defs>
  <circle id="rim" cx="0" cy="0" r="7"/>
  <circle id="rim2" cx="0" cy="0" r="3.5"/>
  <g id="zoomPlus">
    <use xlink:href="#rim" fill="#404040"><set attributeName="fill" to="#808080" begin="zoomplus.mouseover" end="zoomplus.mouseout"/></use>
    <path d="M-4,0h8M0,-4v8" fill="none" stroke="white" stroke-width="1.5" pointer-events="none"/>
  </g>
  <g id="zoomMin">
    <use xlink:href="#rim" fill="#404040"><set attributeName="fill" to="#808080" begin="zoomminus.mouseover" end="zoomminus.mouseout"/></use>
    <path d="M-4,0h8" fill="none" stroke="white" stroke-width="1.5" pointer-events="none"/>
  </g>
  <g id="arrowUp" transform="translate(30 24)">
    <use xlink:href="#rim"/>
    <path pointer-events="none" fill="none" stroke="white" stroke-width="1.5" d="M0,-3.0v7 M-2.5,-0.5L0,-3.0L2.5,-0.5"/>
  </g>
  <g id="arrowRight" transform="rotate(90) translate(36 -43)">
    <use xlink:href="#rim"/>
    <path pointer-events="none" fill="none" stroke="white" stroke-width="1.5" d="M0,-3.0v7 M-2.5,-0.5L0,-3.0L2.5,-0.5"/>
  </g>
  <g id="arrowDown" transform="rotate(180) translate(-30 -48)">
    <use xlink:href="#rim"/>
    <path pointer-events="none" fill="none" stroke="white" stroke-width="1.5" d="M0,-3.0v7 M-2.5,-0.5L0,-3.0L2.5,-0.5"/>
  </g>
  <g id="arrowLeft" transform="rotate(270) translate(-36 17)">
    <use xlink:href="#rim"/>
    <path pointer-events="none" fill="none" stroke="white" stroke-width="1.5" d="M0,-3.0v7 M-2.5,-0.5L0,-3.0L2.5,-0.5"/>
  </g>
  <g id="resetDef">
    <use xlink:href="#rim2" fill="#404040"><set attributeName="fill" to="#808080" begin="reset.mouseover" end="reset.mouseout"/></use>
  </g>
</defs>
<script type="application/ecmascript">
var viewWidth = 167;
var viewHeight = 852;
var sectionId = 'dynsection-1';
</script>
<script type="application/ecmascript" xlink:href="svg.min.js"/>
<svg id="graph" class="graph">
<g id="viewport">
<title>tojhal::devices::BME280</title>
<!-- Node1 -->
<g id="Node000001" class="node">
<title>Node1</title>
<g id="a_Node000001"><a xlink:title="Bosch BME280 sensor interface.">
<polygon fill="#999999" stroke="none" points="136.62,-136 22.12,-136 22.12,0 136.62,0 136.62,-136"/>
<text text-anchor="start" x="26.12" y="-122.5" font-family="Helvetica,sans-Serif" font-size="10.00">tojhal::devices::BME280</text>
<text text-anchor="start" x="77.88" y="-106.5" font-family="Helvetica,sans-Serif" font-size="10.00"> </text>
<text text-anchor="start" x="27.94" y="-90.5" font-family="Helvetica,sans-Serif" font-size="10.00">+</text>
<text text-anchor="start" x="39.75" y="-90.5" font-family="Helvetica,sans-Serif" font-size="10.00">BME280()</text>
<text text-anchor="start" x="27.94" y="-74.5" font-family="Helvetica,sans-Serif" font-size="10.00">+</text>
<text text-anchor="start" x="39.75" y="-74.5" font-family="Helvetica,sans-Serif" font-size="10.00">float getTemperature</text>
<text text-anchor="start" x="39.75" y="-62.5" font-family="Helvetica,sans-Serif" font-size="10.00">() override</text>
<text text-anchor="start" x="27.94" y="-46.5" font-family="Helvetica,sans-Serif" font-size="10.00">+</text>
<text text-anchor="start" x="39.75" y="-46.5" font-family="Helvetica,sans-Serif" font-size="10.00">float getHumidity()</text>
<text text-anchor="start" x="39.75" y="-34.5" font-family="Helvetica,sans-Serif" font-size="10.00"> override</text>
<text text-anchor="start" x="27.94" y="-18.5" font-family="Helvetica,sans-Serif" font-size="10.00">+</text>
<text text-anchor="start" x="39.75" y="-18.5" font-family="Helvetica,sans-Serif" font-size="10.00">float getPressure()</text>
<text text-anchor="start" x="39.75" y="-6.5" font-family="Helvetica,sans-Serif" font-size="10.00"> override</text>
<polygon fill="#666666" stroke="#666666" points="22.12,-118 22.12,-118 136.62,-118 136.62,-118 22.12,-118"/>
<polygon fill="#666666" stroke="#666666" points="22.12,-102 22.12,-102 136.62,-102 136.62,-102 22.12,-102"/>
<polygon fill="none" stroke="#666666" points="22.12,0 22.12,-136 136.62,-136 136.62,0 22.12,0"/>
</a>
</g>
</g>
<!-- Node2 -->
<g id="Node000002" class="node">
<title>Node2</title>
<g id="a_Node000002"><a xlink:href="classtojhal_1_1devices_1_1EnvironmentalSensor.html" target="_top" xlink:title=" ">
<polygon fill="white" stroke="none" points="158.75,-269 0,-269 0,-173 158.75,-173 158.75,-269"/>
<text text-anchor="start" x="4" y="-255.5" font-family="Helvetica,sans-Serif" font-size="10.00">tojhal::devices::Environmental</text>
<text text-anchor="start" x="4" y="-243.5" font-family="Helvetica,sans-Serif" font-size="10.00">Sensor&lt; comms_interfaces::I2C &gt;</text>
<text text-anchor="start" x="77.88" y="-227.5" font-family="Helvetica,sans-Serif" font-size="10.00"> </text>
<text text-anchor="start" x="5.44" y="-211.5" font-family="Helvetica,sans-Serif" font-size="10.00">#</text>
<text text-anchor="start" x="16.12" y="-211.5" font-family="Helvetica,sans-Serif" font-size="10.00">virtual float getTemperature()=0</text>
<text text-anchor="start" x="5.44" y="-195.5" font-family="Helvetica,sans-Serif" font-size="10.00">#</text>
<text text-anchor="start" x="16.12" y="-195.5" font-family="Helvetica,sans-Serif" font-size="10.00">virtual float getHumidity()=0</text>
<text text-anchor="start" x="5.44" y="-179.5" font-family="Helvetica,sans-Serif" font-size="10.00">#</text>
<text text-anchor="start" x="16.12" y="-179.5" font-family="Helvetica,sans-Serif" font-size="10.00">virtual float getPressure()=0</text>
<polygon fill="#666666" stroke="#666666" points="0,-239 0,-239 158.75,-239 158.75,-239 0,-239"/>
<polygon fill="#666666" stroke="#666666" points="0,-223 0,-223 158.75,-223 158.75,-223 0,-223"/>
<polygon fill="none" stroke="#666666" points="0,-173 0,-269 158.75,-269 158.75,-173 0,-173"/>
</a>
</g>
</g>
<!-- Node2&#45;&gt;Node1 -->
<g id="edge1_Node000001_Node000002" class="edge">
<title>Node2&#45;&gt;Node1</title>
<g id="a_edge1_Node000001_Node000002"><a xlink:title=" ">
<path fill="none" stroke="#63b8ff" d="M79.38,-161.74C79.38,-153.27 79.38,-144.5 79.38,-135.88"/>
<polygon fill="none" stroke="#63b8ff" points="75.88,-161.54 79.38,-171.54 82.88,-161.54 75.88,-161.54"/>
</a>
</g>
</g>
<!-- Node3 -->
<g id="Node000003" class="node">
<title>Node3</title>
<g id="a_Node000003"><a xlink:href="classtojhal_1_1devices_1_1Device.html" target="_top" xlink:title=" ">
<polygon fill="white" stroke="none" points="143.38,-370 15.38,-370 15.38,-306 143.38,-306 143.38,-370"/>
<text text-anchor="start" x="19.38" y="-356.5" font-family="Helvetica,sans-Serif" font-size="10.00">tojhal::devices::Device</text>
<text text-anchor="start" x="19.38" y="-344.5" font-family="Helvetica,sans-Serif" font-size="10.00">&lt; comms_interfaces::I2C &gt;</text>
<text text-anchor="start" x="77.88" y="-328.5" font-family="Helvetica,sans-Serif" font-size="10.00"> </text>
<text text-anchor="start" x="77.88" y="-312.5" font-family="Helvetica,sans-Serif" font-size="10.00"> </text>
<polygon fill="#666666" stroke="#666666" points="15.38,-340 15.38,-340 143.38,-340 143.38,-340 15.38,-340"/>
<polygon fill="#666666" stroke="#666666" points="15.38,-324 15.38,-324 143.38,-324 143.38,-324 15.38,-324"/>
<polygon fill="none" stroke="#666666" points="15.38,-306 15.38,-370 143.38,-370 143.38,-306 15.38,-306"/>
</a>
</g>
</g>
<!-- Node3&#45;&gt;Node2 -->
<g id="edge2_Node000002_Node000003" class="edge">
<title>Node3&#45;&gt;Node2</title>
<g id="a_edge2_Node000002_Node000003"><a xlink:title=" ">
<path fill="none" stroke="#63b8ff" d="M79.38,-294.71C79.38,-286.32 79.38,-277.46 79.38,-268.93"/>
<polygon fill="none" stroke="#63b8ff" points="75.88,-294.67 79.38,-304.67 82.88,-294.67 75.88,-294.67"/>
</a>
</g>
</g>
<!-- Node4 -->
<g id="Node000004" class="node">
<title>Node4</title>
<g id="a_Node000004"><a xlink:href="classtojhal_1_1comms__interfaces_1_1I2C.html" target="_top" xlink:title="I2C communication interface.">
<polygon fill="white" stroke="none" points="149,-578 9.75,-578 9.75,-418 149,-418 149,-578"/>
<text text-anchor="start" x="13.75" y="-564.5" font-family="Helvetica,sans-Serif" font-size="10.00">tojhal::comms_interfaces::I2C</text>
<text text-anchor="start" x="77.88" y="-548.5" font-family="Helvetica,sans-Serif" font-size="10.00"> </text>
<text text-anchor="start" x="17.81" y="-532.5" font-family="Helvetica,sans-Serif" font-size="10.00">+</text>
<text text-anchor="start" x="31.88" y="-532.5" font-family="Helvetica,sans-Serif" font-size="10.00">I2C()</text>
<text text-anchor="start" x="17.81" y="-516.5" font-family="Helvetica,sans-Serif" font-size="10.00">+</text>
<text text-anchor="start" x="31.88" y="-516.5" font-family="Helvetica,sans-Serif" font-size="10.00">I2C(uint8_t device)</text>
<text text-anchor="start" x="17.81" y="-500.5" font-family="Helvetica,sans-Serif" font-size="10.00">+</text>
<text text-anchor="start" x="31.88" y="-500.5" font-family="Helvetica,sans-Serif" font-size="10.00">void readRegister(uint8</text>
<text text-anchor="start" x="31.88" y="-488.5" font-family="Helvetica,sans-Serif" font-size="10.00">_t address, uint32_t len,</text>
<text text-anchor="start" x="31.88" y="-476.5" font-family="Helvetica,sans-Serif" font-size="10.00"> char *buffer) override</text>
<text text-anchor="start" x="17.81" y="-460.5" font-family="Helvetica,sans-Serif" font-size="10.00">+</text>
<text text-anchor="start" x="31.88" y="-460.5" font-family="Helvetica,sans-Serif" font-size="10.00">void writeRegister</text>
<text text-anchor="start" x="31.88" y="-448.5" font-family="Helvetica,sans-Serif" font-size="10.00">(uint8_t address, char</text>
<text text-anchor="start" x="31.88" y="-436.5" font-family="Helvetica,sans-Serif" font-size="10.00"> *buffer, uint32_t len)</text>
<text text-anchor="start" x="31.88" y="-424.5" font-family="Helvetica,sans-Serif" font-size="10.00"> override</text>
<polygon fill="#666666" stroke="#666666" points="9.75,-560 9.75,-560 149,-560 149,-560 9.75,-560"/>
<polygon fill="#666666" stroke="#666666" points="9.75,-544 9.75,-544 149,-544 149,-544 9.75,-544"/>
<polygon fill="none" stroke="#666666" points="9.75,-418 9.75,-578 149,-578 149,-418 9.75,-418"/>
</a>
</g>
</g>
<!-- Node4&#45;&gt;Node3 -->
<g id="edge3_Node000003_Node000004" class="edge">
<title>Node4&#45;&gt;Node3</title>
<g id="a_edge3_Node000003_Node000004"><a xlink:title=" ">
<path fill="none" stroke="#63b8ff" d="M79.38,-418C79.38,-405.82 79.38,-393.65 79.38,-382.63"/>
<polygon fill="none" stroke="#63b8ff" points="79.38,-382.74 75.38,-376.74 79.38,-370.74 83.38,-376.74 79.38,-382.74"/>
</a>
</g>
<text text-anchor="middle" x="116.88" y="-390.5" font-family="Helvetica,sans-Serif" font-size="10.00" fill="grey"> #deviceInterface</text>
</g>
<!-- Node5 -->
<g id="Node000005" class="node">
<title>Node5</title>
<g id="a_Node000005"><a xlink:href="classtojhal_1_1comms__interfaces_1_1RegisterInterface.html" target="_top" xlink:title="Communication interface over registers. (Eg: I2C, SPI)">
<polygon fill="white" stroke="none" points="152.12,-743 6.62,-743 6.62,-615 152.12,-615 152.12,-743"/>
<text text-anchor="start" x="24.62" y="-729.5" font-family="Helvetica,sans-Serif" font-size="10.00">tojhal::comms_interfaces</text>
<text text-anchor="start" x="38.88" y="-717.5" font-family="Helvetica,sans-Serif" font-size="10.00">::RegisterInterface</text>
<text text-anchor="start" x="10.62" y="-701.5" font-family="Helvetica,sans-Serif" font-size="10.00">#</text>
<text text-anchor="start" x="19.88" y="-701.5" font-family="Helvetica,sans-Serif" font-size="10.00">uint8_t deviceAddr</text>
<text text-anchor="start" x="10.62" y="-685.5" font-family="Helvetica,sans-Serif" font-size="10.00">#</text>
<text text-anchor="start" x="19.88" y="-685.5" font-family="Helvetica,sans-Serif" font-size="10.00">virtual void readRegister</text>
<text text-anchor="start" x="19.88" y="-673.5" font-family="Helvetica,sans-Serif" font-size="10.00">(uint8_t address, uint32</text>
<text text-anchor="start" x="19.88" y="-661.5" font-family="Helvetica,sans-Serif" font-size="10.00">_t len, char *buffer)=0</text>
<text text-anchor="start" x="10.62" y="-645.5" font-family="Helvetica,sans-Serif" font-size="10.00">#</text>
<text text-anchor="start" x="19.88" y="-645.5" font-family="Helvetica,sans-Serif" font-size="10.00">virtual void writeRegister</text>
<text text-anchor="start" x="19.88" y="-633.5" font-family="Helvetica,sans-Serif" font-size="10.00">(uint8_t address, char *buffer,</text>
<text text-anchor="start" x="19.88" y="-621.5" font-family="Helvetica,sans-Serif" font-size="10.00"> uint32_t len)=0</text>
<polygon fill="#666666" stroke="#666666" points="6.62,-713 6.62,-713 152.12,-713 152.12,-713 6.62,-713"/>
<polygon fill="#666666" stroke="#666666" points="6.62,-697 6.62,-697 17.88,-697 17.88,-697 6.62,-697"/>
<polygon fill="#666666" stroke="#666666" points="17.88,-697 17.88,-697 152.12,-697 152.12,-697 17.88,-697"/>
<polygon fill="none" stroke="#666666" points="6.62,-615 6.62,-743 152.12,-743 152.12,-615 6.62,-615"/>
</a>
</g>
</g>
<!-- Node5&#45;&gt;Node4 -->
<g id="edge4_Node000004_Node000005" class="edge">
<title>Node5&#45;&gt;Node4</title>
<g id="a_edge4_Node000004_Node000005"><a xlink:title=" ">
<path fill="none" stroke="#63b8ff" d="M79.38,-603.63C79.38,-595.08 79.38,-586.34 79.38,-577.74"/>
<polygon fill="none" stroke="#63b8ff" points="75.88,-603.63 79.38,-613.63 82.88,-603.63 75.88,-603.63"/>
</a>
</g>
</g>
<!-- Node6 -->
<g id="Node000006" class="node">
<title>Node6</title>
<g id="a_Node000006"><a xlink:href="classtojhal_1_1comms__interfaces_1_1CommsInterface.html" target="_top" xlink:title="Communications interface abstract class.">
<polygon fill="white" stroke="none" points="138.12,-844 20.62,-844 20.62,-780 138.12,-780 138.12,-844"/>
<text text-anchor="start" x="24.62" y="-830.5" font-family="Helvetica,sans-Serif" font-size="10.00">tojhal::comms_interfaces</text>
<text text-anchor="start" x="40" y="-818.5" font-family="Helvetica,sans-Serif" font-size="10.00">::CommsInterface</text>
<text text-anchor="start" x="77.88" y="-802.5" font-family="Helvetica,sans-Serif" font-size="10.00"> </text>
<text text-anchor="start" x="77.88" y="-786.5" font-family="Helvetica,sans-Serif" font-size="10.00"> </text>
<polygon fill="#666666" stroke="#666666" points="20.62,-814 20.62,-814 138.12,-814 138.12,-814 20.62,-814"/>
<polygon fill="#666666" stroke="#666666" points="20.62,-798 20.62,-798 138.12,-798 138.12,-798 20.62,-798"/>
<polygon fill="none" stroke="#666666" points="20.62,-780 20.62,-844 138.12,-844 138.12,-780 20.62,-780"/>
</a>
</g>
</g>
<!-- Node6&#45;&gt;Node5 -->
<g id="edge5_Node000005_Node000006" class="edge">
<title>Node6&#45;&gt;Node5</title>
<g id="a_edge5_Node000005_Node000006"><a xlink:title=" ">
<path fill="none" stroke="#63b8ff" d="M79.38,-768.93C79.38,-760.58 79.38,-751.63 79.38,-742.76"/>
<polygon fill="none" stroke="#63b8ff" points="75.88,-768.77 79.38,-778.77 82.88,-768.77 75.88,-768.77"/>
</a>
</g>
</g>
</g>
</svg>

<g id="navigator" transform="translate(0 0)" fill="#404254">
  <rect fill="#f2f5e9" fill-opacity="0.5" stroke="#606060" stroke-width=".5" x="0" y="0" width="60" height="60"/>
  <use id="zoomplus" xlink:href="#zoomPlus" x="17" y="9" onmousedown="handleZoom(evt,'in')"/>
  <use id="zoomminus" xlink:href="#zoomMin" x="42" y="9" onmousedown="handleZoom(evt,'out')"/>
  <use id="reset" xlink:href="#resetDef" x="30" y="36" onmousedown="handleReset()"/>
   <use id="arrowup" xlink:href="#arrowUp" x="0" y="0" onmousedown="handlePan(0,-1)"/>
  <use id="arrowright" xlink:href="#arrowRight" x="0" y="0" onmousedown="handlePan(1,0)"/>
  <use id="arrowdown" xlink:href="#arrowDown" x="0" y="0" onmousedown="handlePan(0,1)"/>
  <use id="arrowleft" xlink:href="#arrowLeft" x="0" y="0" onmousedown="handlePan(-1,0)"/>
</g>
<svg viewBox="0 0 15 15" width="100%" height="30px" preserveAspectRatio="xMaxYMin meet">
 <g id="arrow_out" transform="scale(0.3 0.3)">
  <a xlink:href="classtojhal_1_1devices_1_1BME280__coll__graph_org.svg" target="_base">
   <rect id="button" ry="5" rx="5" y="6" x="6" height="38" width="38"
        fill="#f2f5e9" fill-opacity="0.5" stroke="#606060" stroke-width="1.0"/>
   <path id="arrow"
     d="M 11.500037,31.436501 C 11.940474,20.09759 22.043105,11.32322 32.158766,21.979434 L 37.068811,17.246167 C 37.068811,17.246167 37.088388,32 37.088388,32 L 22.160133,31.978069 C 22.160133,31.978069 26.997745,27.140456 26.997745,27.140456 C 18.528582,18.264221 13.291696,25.230495 11.500037,31.436501 z"
     style="fill:#404040;"/>
  </a>
 </g>
</svg>

<style type='text/css'>
<![CDATA[
[data-mouse-over-selected='false'] { opacity: 0.7; }
[data-mouse-over-selected='true']  { opacity: 1.0; }
]]>
</style>
<script type="application/ecmascript"><![CDATA[
document.addEventListener('DOMContentLoaded', (event) => {
  highlightEdges();
  highlightAdjacentNodes();
});
]]></script>
</svg>
