<?xml version="1.0" encoding="UTF-8" standalone="no"?>
<!DOCTYPE svg PUBLIC "-//W3C//DTD SVG 1.1//EN"
 "http://www.w3.org/Graphics/SVG/1.1/DTD/svg11.dtd">
<!-- Generated by graphviz version 12.2.1 (0)
 -->
<!-- Title: tojhal::devices::BME280 Pages: 1 -->
<svg width="167pt" height="388pt"
 viewBox="0.00 0.00 166.75 388.00" xmlns="http://www.w3.org/2000/svg" xmlns:xlink="http://www.w3.org/1999/xlink">
<g id="graph0" class="graph" transform="scale(1 1) rotate(0) translate(4 384)">
<title>tojhal::devices::BME280</title>
<!-- Node1 -->
<g id="Node000001" class="node">
<title>Node1</title>
<g id="a_Node000001"><a xlink:title="Bosch BME280 sensor interface.">
<polygon fill="#999999" stroke="none" points="136.62,-136 22.12,-136 22.12,0 136.62,0 136.62,-136"/>
<text text-anchor="start" x="26.12" y="-122.5" font-family="Helvetica,sans-Serif" font-size="10.00">tojhal::devices::BME280</text>
<text text-anchor="start" x="77.88" y="-106.5" font-family="Helvetica,sans-Serif" font-size="10.00"> </text>
<text text-anchor="start" x="27.94" y="-90.5" font-family="Helvetica,sans-Serif" font-size="10.00">+</text>
<text text-anchor="start" x="39.75" y="-90.5" font-family="Helvetica,sans-Serif" font-size="10.00">BME280()</text>
<text text-anchor="start" x="27.94" y="-74.5" font-family="Helvetica,sans-Serif" font-size="10.00">+</text>
<text text-anchor="start" x="39.75" y="-74.5" font-family="Helvetica,sans-Serif" font-size="10.00">float getTemperature</text>
<text text-anchor="start" x="39.75" y="-62.5" font-family="Helvetica,sans-Serif" font-size="10.00">() override</text>
<text text-anchor="start" x="27.94" y="-46.5" font-family="Helvetica,sans-Serif" font-size="10.00">+</text>
<text text-anchor="start" x="39.75" y="-46.5" font-family="Helvetica,sans-Serif" font-size="10.00">float getHumidity()</text>
<text text-anchor="start" x="39.75" y="-34.5" font-family="Helvetica,sans-Serif" font-size="10.00"> override</text>
<text text-anchor="start" x="27.94" y="-18.5" font-family="Helvetica,sans-Serif" font-size="10.00">+</text>
<text text-anchor="start" x="39.75" y="-18.5" font-family="Helvetica,sans-Serif" font-size="10.00">float getPressure()</text>
<text text-anchor="start" x="39.75" y="-6.5" font-family="Helvetica,sans-Serif" font-size="10.00"> override</text>
<polygon fill="#666666" stroke="#666666" points="22.12,-118 22.12,-118 136.62,-118 136.62,-118 22.12,-118"/>
<polygon fill="#666666" stroke="#666666" points="22.12,-102 22.12,-102 136.62,-102 136.62,-102 22.12,-102"/>
<polygon fill="none" stroke="#666666" points="22.12,0 22.12,-136 136.62,-136 136.62,0 22.12,0"/>
</a>
</g>
</g>
<!-- Node2 -->
<g id="Node000002" class="node">
<title>Node2</title>
<g id="a_Node000002"><a xlink:href="classtojhal_1_1devices_1_1EnvironmentalSensor.html" target="_top" xlink:title=" ">
<polygon fill="white" stroke="none" points="158.75,-268 0,-268 0,-172 158.75,-172 158.75,-268"/>
<text text-anchor="start" x="4" y="-254.5" font-family="Helvetica,sans-Serif" font-size="10.00">tojhal::devices::Environmental</text>
<text text-anchor="start" x="4" y="-242.5" font-family="Helvetica,sans-Serif" font-size="10.00">Sensor&lt; comms_interfaces::I2C &gt;</text>
<text text-anchor="start" x="77.88" y="-226.5" font-family="Helvetica,sans-Serif" font-size="10.00"> </text>
<text text-anchor="start" x="5.44" y="-210.5" font-family="Helvetica,sans-Serif" font-size="10.00">#</text>
<text text-anchor="start" x="16.12" y="-210.5" font-family="Helvetica,sans-Serif" font-size="10.00">virtual float getTemperature()=0</text>
<text text-anchor="start" x="5.44" y="-194.5" font-family="Helvetica,sans-Serif" font-size="10.00">#</text>
<text text-anchor="start" x="16.12" y="-194.5" font-family="Helvetica,sans-Serif" font-size="10.00">virtual float getHumidity()=0</text>
<text text-anchor="start" x="5.44" y="-178.5" font-family="Helvetica,sans-Serif" font-size="10.00">#</text>
<text text-anchor="start" x="16.12" y="-178.5" font-family="Helvetica,sans-Serif" font-size="10.00">virtual float getPressure()=0</text>
<polygon fill="#666666" stroke="#666666" points="0,-238 0,-238 158.75,-238 158.75,-238 0,-238"/>
<polygon fill="#666666" stroke="#666666" points="0,-222 0,-222 158.75,-222 158.75,-222 0,-222"/>
<polygon fill="none" stroke="#666666" points="0,-172 0,-268 158.75,-268 158.75,-172 0,-172"/>
</a>
</g>
</g>
<!-- Node2&#45;&gt;Node1 -->
<g id="edge1_Node000001_Node000002" class="edge">
<title>Node2&#45;&gt;Node1</title>
<g id="a_edge1_Node000001_Node000002"><a xlink:title=" ">
<path fill="none" stroke="#63b8ff" d="M79.38,-161.01C79.38,-152.81 79.38,-144.33 79.38,-135.98"/>
<polygon fill="none" stroke="#63b8ff" points="75.88,-160.85 79.38,-170.85 82.88,-160.85 75.88,-160.85"/>
</a>
</g>
</g>
<!-- Node3 -->
<g id="Node000003" class="node">
<title>Node3</title>
<g id="a_Node000003"><a xlink:href="classtojhal_1_1devices_1_1Device.html" target="_top" xlink:title=" ">
<polygon fill="white" stroke="none" points="143.38,-380 15.38,-380 15.38,-304 143.38,-304 143.38,-380"/>
<text text-anchor="start" x="19.38" y="-366.5" font-family="Helvetica,sans-Serif" font-size="10.00">tojhal::devices::Device</text>
<text text-anchor="start" x="19.38" y="-354.5" font-family="Helvetica,sans-Serif" font-size="10.00">&lt; comms_interfaces::I2C &gt;</text>
<text text-anchor="start" x="21.56" y="-338.5" font-family="Helvetica,sans-Serif" font-size="10.00">#</text>
<text text-anchor="start" x="33" y="-338.5" font-family="Helvetica,sans-Serif" font-size="10.00">comms_interfaces::I2C</text>
<text text-anchor="start" x="33" y="-326.5" font-family="Helvetica,sans-Serif" font-size="10.00"> deviceInterface</text>
<text text-anchor="start" x="77.88" y="-310.5" font-family="Helvetica,sans-Serif" font-size="10.00"> </text>
<polygon fill="#666666" stroke="#666666" points="15.38,-350 15.38,-350 143.38,-350 143.38,-350 15.38,-350"/>
<polygon fill="#666666" stroke="#666666" points="15.38,-322 15.38,-322 31,-322 31,-322 15.38,-322"/>
<polygon fill="#666666" stroke="#666666" points="31,-322 31,-322 143.38,-322 143.38,-322 31,-322"/>
<polygon fill="none" stroke="#666666" points="15.38,-304 15.38,-380 143.38,-380 143.38,-304 15.38,-304"/>
</a>
</g>
</g>
<!-- Node3&#45;&gt;Node2 -->
<g id="edge2_Node000002_Node000003" class="edge">
<title>Node3&#45;&gt;Node2</title>
<g id="a_edge2_Node000002_Node000003"><a xlink:title=" ">
<path fill="none" stroke="#63b8ff" d="M79.38,-292.69C79.38,-284.5 79.38,-275.99 79.38,-267.83"/>
<polygon fill="none" stroke="#63b8ff" points="75.88,-292.5 79.38,-302.5 82.88,-292.5 75.88,-292.5"/>
</a>
</g>
</g>
</g>
</svg>
