<?xml version="1.0" encoding="UTF-8" standalone="no"?>
<!DOCTYPE svg PUBLIC "-//W3C//DTD SVG 1.1//EN"
 "http://www.w3.org/Graphics/SVG/1.1/DTD/svg11.dtd">
<!-- Generated by graphviz version 12.2.1 (0)
 -->
<!-- Title: tojhal::comms_interfaces::I2C Pages: 1 -->
<svg width="154pt" height="432pt"
 viewBox="0.00 0.00 153.50 432.00" xmlns="http://www.w3.org/2000/svg" xmlns:xlink="http://www.w3.org/1999/xlink">

<svg id="main" version="1.1" xmlns="http://www.w3.org/2000/svg" xmlns:xlink="http://www.w3.org/1999/xlink" xml:space="preserve">

<style type="text/css"><![CDATA[
.node, .edge {opacity: 0.7;}
.node.selected, .edge.selected {opacity: 1;}
.edge:hover path { stroke: red; }
.edge:hover polygon { stroke: red; fill: red; }
]]></style>
<script type="application/ecmascript" xlink:href="svg.min.js"/>
<svg id="graph" class="graph">
<g id="graph0" class="graph" transform="scale(1 1) rotate(0) translate(4 428)">
<title>tojhal::comms_interfaces::I2C</title>
<!-- Node1 -->
<g id="Node000001" class="node">
<title>Node1</title>
<g id="a_Node000001"><a xlink:title="I2C communication interface.">
<polygon fill="#999999" stroke="none" points="142.38,-160 3.12,-160 3.12,0 142.38,0 142.38,-160"/>
<text text-anchor="start" x="7.12" y="-146.5" font-family="Helvetica,sans-Serif" font-size="10.00">tojhal::comms_interfaces::I2C</text>
<text text-anchor="start" x="71.25" y="-130.5" font-family="Helvetica,sans-Serif" font-size="10.00"> </text>
<text text-anchor="start" x="11.19" y="-114.5" font-family="Helvetica,sans-Serif" font-size="10.00">+</text>
<text text-anchor="start" x="25.25" y="-114.5" font-family="Helvetica,sans-Serif" font-size="10.00">I2C()</text>
<text text-anchor="start" x="11.19" y="-98.5" font-family="Helvetica,sans-Serif" font-size="10.00">+</text>
<text text-anchor="start" x="25.25" y="-98.5" font-family="Helvetica,sans-Serif" font-size="10.00">I2C(uint8_t device)</text>
<text text-anchor="start" x="11.19" y="-82.5" font-family="Helvetica,sans-Serif" font-size="10.00">+</text>
<text text-anchor="start" x="25.25" y="-82.5" font-family="Helvetica,sans-Serif" font-size="10.00">void readRegister(uint8</text>
<text text-anchor="start" x="25.25" y="-70.5" font-family="Helvetica,sans-Serif" font-size="10.00">_t address, uint32_t len,</text>
<text text-anchor="start" x="25.25" y="-58.5" font-family="Helvetica,sans-Serif" font-size="10.00"> char *buffer) override</text>
<text text-anchor="start" x="11.19" y="-42.5" font-family="Helvetica,sans-Serif" font-size="10.00">+</text>
<text text-anchor="start" x="25.25" y="-42.5" font-family="Helvetica,sans-Serif" font-size="10.00">void writeRegister</text>
<text text-anchor="start" x="25.25" y="-30.5" font-family="Helvetica,sans-Serif" font-size="10.00">(uint8_t address, char</text>
<text text-anchor="start" x="25.25" y="-18.5" font-family="Helvetica,sans-Serif" font-size="10.00"> *buffer, uint32_t len)</text>
<text text-anchor="start" x="25.25" y="-6.5" font-family="Helvetica,sans-Serif" font-size="10.00"> override</text>
<polygon fill="#666666" stroke="#666666" points="3.12,-142 3.12,-142 142.38,-142 142.38,-142 3.12,-142"/>
<polygon fill="#666666" stroke="#666666" points="3.12,-126 3.12,-126 142.38,-126 142.38,-126 3.12,-126"/>
<polygon fill="none" stroke="#666666" points="3.12,0 3.12,-160 142.38,-160 142.38,0 3.12,0"/>
</a>
</g>
</g>
<!-- Node2 -->
<g id="Node000002" class="node">
<title>Node2</title>
<g id="a_Node000002"><a xlink:href="classtojhal_1_1comms__interfaces_1_1RegisterInterface.html" target="_top" xlink:title="Communication interface over registers. (Eg: I2C, SPI)">
<polygon fill="white" stroke="none" points="145.5,-324 0,-324 0,-196 145.5,-196 145.5,-324"/>
<text text-anchor="start" x="18" y="-310.5" font-family="Helvetica,sans-Serif" font-size="10.00">tojhal::comms_interfaces</text>
<text text-anchor="start" x="32.25" y="-298.5" font-family="Helvetica,sans-Serif" font-size="10.00">::RegisterInterface</text>
<text text-anchor="start" x="4" y="-282.5" font-family="Helvetica,sans-Serif" font-size="10.00">#</text>
<text text-anchor="start" x="13.25" y="-282.5" font-family="Helvetica,sans-Serif" font-size="10.00">uint8_t deviceAddr</text>
<text text-anchor="start" x="4" y="-266.5" font-family="Helvetica,sans-Serif" font-size="10.00">#</text>
<text text-anchor="start" x="13.25" y="-266.5" font-family="Helvetica,sans-Serif" font-size="10.00">virtual void readRegister</text>
<text text-anchor="start" x="13.25" y="-254.5" font-family="Helvetica,sans-Serif" font-size="10.00">(uint8_t address, uint32</text>
<text text-anchor="start" x="13.25" y="-242.5" font-family="Helvetica,sans-Serif" font-size="10.00">_t len, char *buffer)=0</text>
<text text-anchor="start" x="4" y="-226.5" font-family="Helvetica,sans-Serif" font-size="10.00">#</text>
<text text-anchor="start" x="13.25" y="-226.5" font-family="Helvetica,sans-Serif" font-size="10.00">virtual void writeRegister</text>
<text text-anchor="start" x="13.25" y="-214.5" font-family="Helvetica,sans-Serif" font-size="10.00">(uint8_t address, char *buffer,</text>
<text text-anchor="start" x="13.25" y="-202.5" font-family="Helvetica,sans-Serif" font-size="10.00"> uint32_t len)=0</text>
<polygon fill="#666666" stroke="#666666" points="0,-294 0,-294 145.5,-294 145.5,-294 0,-294"/>
<polygon fill="#666666" stroke="#666666" points="0,-278 0,-278 11.25,-278 11.25,-278 0,-278"/>
<polygon fill="#666666" stroke="#666666" points="11.25,-278 11.25,-278 145.5,-278 145.5,-278 11.25,-278"/>
<polygon fill="none" stroke="#666666" points="0,-196 0,-324 145.5,-324 145.5,-196 0,-196"/>
</a>
</g>
</g>
<!-- Node2&#45;&gt;Node1 -->
<g id="edge1_Node000001_Node000002" class="edge">
<title>Node2&#45;&gt;Node1</title>
<g id="a_edge1_Node000001_Node000002"><a xlink:title=" ">
<path fill="none" stroke="#63b8ff" d="M72.75,-185C72.75,-176.65 72.75,-168.12 72.75,-159.72"/>
<polygon fill="none" stroke="#63b8ff" points="69.25,-184.73 72.75,-194.73 76.25,-184.73 69.25,-184.73"/>
</a>
</g>
</g>
<!-- Node3 -->
<g id="Node000003" class="node">
<title>Node3</title>
<g id="a_Node000003"><a xlink:href="classtojhal_1_1comms__interfaces_1_1CommsInterface.html" target="_top" xlink:title="Communications interface abstract class.">
<polygon fill="white" stroke="none" points="131.5,-424 14,-424 14,-360 131.5,-360 131.5,-424"/>
<text text-anchor="start" x="18" y="-410.5" font-family="Helvetica,sans-Serif" font-size="10.00">tojhal::comms_interfaces</text>
<text text-anchor="start" x="33.38" y="-398.5" font-family="Helvetica,sans-Serif" font-size="10.00">::CommsInterface</text>
<text text-anchor="start" x="71.25" y="-382.5" font-family="Helvetica,sans-Serif" font-size="10.00"> </text>
<text text-anchor="start" x="71.25" y="-366.5" font-family="Helvetica,sans-Serif" font-size="10.00"> </text>
<polygon fill="#666666" stroke="#666666" points="14,-394 14,-394 131.5,-394 131.5,-394 14,-394"/>
<polygon fill="#666666" stroke="#666666" points="14,-378 14,-378 131.5,-378 131.5,-378 14,-378"/>
<polygon fill="none" stroke="#666666" points="14,-360 14,-424 131.5,-424 131.5,-360 14,-360"/>
</a>
</g>
</g>
<!-- Node3&#45;&gt;Node2 -->
<g id="edge2_Node000002_Node000003" class="edge">
<title>Node3&#45;&gt;Node2</title>
<g id="a_edge2_Node000002_Node000003"><a xlink:title=" ">
<path fill="none" stroke="#63b8ff" d="M72.75,-348.88C72.75,-340.86 72.75,-332.3 72.75,-323.79"/>
<polygon fill="none" stroke="#63b8ff" points="69.25,-348.68 72.75,-358.68 76.25,-348.68 69.25,-348.68"/>
</a>
</g>
</g>
</g>
</svg>
</svg>

<style type='text/css'>
<![CDATA[
[data-mouse-over-selected='false'] { opacity: 0.7; }
[data-mouse-over-selected='true']  { opacity: 1.0; }
]]>
</style>
<script type="application/ecmascript"><![CDATA[
document.addEventListener('DOMContentLoaded', (event) => {
  highlightEdges();
  highlightAdjacentNodes();
});
]]></script>
</svg>
