<?xml version="1.0" encoding="UTF-8" standalone="no"?>
<!DOCTYPE svg PUBLIC "-//W3C//DTD SVG 1.1//EN"
 "http://www.w3.org/Graphics/SVG/1.1/DTD/svg11.dtd">
<!-- Generated by graphviz version 12.2.1 (0)
 -->
<!-- Title: tojhal::comms_interfaces::RegisterInterface Pages: 1 -->
<svg width="154pt" height="236pt"
 viewBox="0.00 0.00 153.50 236.00" xmlns="http://www.w3.org/2000/svg" xmlns:xlink="http://www.w3.org/1999/xlink">

<svg id="main" version="1.1" xmlns="http://www.w3.org/2000/svg" xmlns:xlink="http://www.w3.org/1999/xlink" xml:space="preserve">

<style type="text/css"><![CDATA[
.node, .edge {opacity: 0.7;}
.node.selected, .edge.selected {opacity: 1;}
.edge:hover path { stroke: red; }
.edge:hover polygon { stroke: red; fill: red; }
]]></style>
<script type="application/ecmascript" xlink:href="svg.min.js"/>
<svg id="graph" class="graph">
<g id="graph0" class="graph" transform="scale(1 1) rotate(0) translate(4 232)">
<title>tojhal::comms_interfaces::RegisterInterface</title>
<!-- Node1 -->
<g id="Node000001" class="node">
<title>Node1</title>
<g id="a_Node000001"><a xlink:title="Communication interface over registers. (Eg: I2C, SPI)">
<polygon fill="#999999" stroke="none" points="145.5,-128 0,-128 0,0 145.5,0 145.5,-128"/>
<text text-anchor="start" x="18" y="-114.5" font-family="Helvetica,sans-Serif" font-size="10.00">tojhal::comms_interfaces</text>
<text text-anchor="start" x="32.25" y="-102.5" font-family="Helvetica,sans-Serif" font-size="10.00">::RegisterInterface</text>
<text text-anchor="start" x="4" y="-86.5" font-family="Helvetica,sans-Serif" font-size="10.00">#</text>
<text text-anchor="start" x="13.25" y="-86.5" font-family="Helvetica,sans-Serif" font-size="10.00">uint8_t deviceAddr</text>
<text text-anchor="start" x="4" y="-70.5" font-family="Helvetica,sans-Serif" font-size="10.00">#</text>
<text text-anchor="start" x="13.25" y="-70.5" font-family="Helvetica,sans-Serif" font-size="10.00">virtual void readRegister</text>
<text text-anchor="start" x="13.25" y="-58.5" font-family="Helvetica,sans-Serif" font-size="10.00">(uint8_t address, uint32</text>
<text text-anchor="start" x="13.25" y="-46.5" font-family="Helvetica,sans-Serif" font-size="10.00">_t len, char *buffer)=0</text>
<text text-anchor="start" x="4" y="-30.5" font-family="Helvetica,sans-Serif" font-size="10.00">#</text>
<text text-anchor="start" x="13.25" y="-30.5" font-family="Helvetica,sans-Serif" font-size="10.00">virtual void writeRegister</text>
<text text-anchor="start" x="13.25" y="-18.5" font-family="Helvetica,sans-Serif" font-size="10.00">(uint8_t address, char *buffer,</text>
<text text-anchor="start" x="13.25" y="-6.5" font-family="Helvetica,sans-Serif" font-size="10.00"> uint32_t len)=0</text>
<polygon fill="#666666" stroke="#666666" points="0,-98 0,-98 145.5,-98 145.5,-98 0,-98"/>
<polygon fill="#666666" stroke="#666666" points="0,-82 0,-82 11.25,-82 11.25,-82 0,-82"/>
<polygon fill="#666666" stroke="#666666" points="11.25,-82 11.25,-82 145.5,-82 145.5,-82 11.25,-82"/>
<polygon fill="none" stroke="#666666" points="0,0 0,-128 145.5,-128 145.5,0 0,0"/>
</a>
</g>
</g>
<!-- Node2 -->
<g id="Node000002" class="node">
<title>Node2</title>
<g id="a_Node000002"><a xlink:href="classtojhal_1_1comms__interfaces_1_1CommsInterface.html" target="_top" xlink:title="Communications interface abstract class.">
<polygon fill="white" stroke="none" points="131.5,-228 14,-228 14,-164 131.5,-164 131.5,-228"/>
<text text-anchor="start" x="18" y="-214.5" font-family="Helvetica,sans-Serif" font-size="10.00">tojhal::comms_interfaces</text>
<text text-anchor="start" x="33.38" y="-202.5" font-family="Helvetica,sans-Serif" font-size="10.00">::CommsInterface</text>
<text text-anchor="start" x="71.25" y="-186.5" font-family="Helvetica,sans-Serif" font-size="10.00"> </text>
<text text-anchor="start" x="71.25" y="-170.5" font-family="Helvetica,sans-Serif" font-size="10.00"> </text>
<polygon fill="#666666" stroke="#666666" points="14,-198 14,-198 131.5,-198 131.5,-198 14,-198"/>
<polygon fill="#666666" stroke="#666666" points="14,-182 14,-182 131.5,-182 131.5,-182 14,-182"/>
<polygon fill="none" stroke="#666666" points="14,-164 14,-228 131.5,-228 131.5,-164 14,-164"/>
</a>
</g>
</g>
<!-- Node2&#45;&gt;Node1 -->
<g id="edge1_Node000001_Node000002" class="edge">
<title>Node2&#45;&gt;Node1</title>
<g id="a_edge1_Node000001_Node000002"><a xlink:title=" ">
<path fill="none" stroke="#63b8ff" d="M72.75,-152.88C72.75,-144.86 72.75,-136.3 72.75,-127.79"/>
<polygon fill="none" stroke="#63b8ff" points="69.25,-152.68 72.75,-162.68 76.25,-152.68 69.25,-152.68"/>
</a>
</g>
</g>
</g>
</svg>
</svg>

<style type='text/css'>
<![CDATA[
[data-mouse-over-selected='false'] { opacity: 0.7; }
[data-mouse-over-selected='true']  { opacity: 1.0; }
]]>
</style>
<script type="application/ecmascript"><![CDATA[
document.addEventListener('DOMContentLoaded', (event) => {
  highlightEdges();
  highlightAdjacentNodes();
});
]]></script>
</svg>
