<?xml version="1.0" encoding="UTF-8" standalone="no"?>
<!DOCTYPE svg PUBLIC "-//W3C//DTD SVG 1.1//EN"
 "http://www.w3.org/Graphics/SVG/1.1/DTD/svg11.dtd">
<!-- Generated by graphviz version 12.2.1 (0)
 -->
<!-- Title: tojhal::comms_interfaces::PubSubInterface Pages: 1 -->
<svg width="126pt" height="208pt"
 viewBox="0.00 0.00 125.50 208.00" xmlns="http://www.w3.org/2000/svg" xmlns:xlink="http://www.w3.org/1999/xlink">

<svg id="main" version="1.1" xmlns="http://www.w3.org/2000/svg" xmlns:xlink="http://www.w3.org/1999/xlink" xml:space="preserve">

<style type="text/css"><![CDATA[
.node, .edge {opacity: 0.7;}
.node.selected, .edge.selected {opacity: 1;}
.edge:hover path { stroke: red; }
.edge:hover polygon { stroke: red; fill: red; }
]]></style>
<script type="application/ecmascript" xlink:href="svg.min.js"/>
<svg id="graph" class="graph">
<g id="graph0" class="graph" transform="scale(1 1) rotate(0) translate(4 204)">
<title>tojhal::comms_interfaces::PubSubInterface</title>
<!-- Node1 -->
<g id="Node000001" class="node">
<title>Node1</title>
<g id="a_Node000001"><a xlink:title="Abstract pub/sub communication interface.">
<polygon fill="#999999" stroke="none" points="117.5,-100 0,-100 0,0 117.5,0 117.5,-100"/>
<text text-anchor="start" x="4" y="-86.5" font-family="Helvetica,sans-Serif" font-size="10.00">tojhal::comms_interfaces</text>
<text text-anchor="start" x="19.38" y="-74.5" font-family="Helvetica,sans-Serif" font-size="10.00">::PubSubInterface</text>
<text text-anchor="start" x="57.25" y="-58.5" font-family="Helvetica,sans-Serif" font-size="10.00"> </text>
<text text-anchor="start" x="7.88" y="-42.5" font-family="Helvetica,sans-Serif" font-size="10.00">#</text>
<text text-anchor="start" x="21" y="-42.5" font-family="Helvetica,sans-Serif" font-size="10.00">void publish(const</text>
<text text-anchor="start" x="21" y="-30.5" font-family="Helvetica,sans-Serif" font-size="10.00"> std::string &amp;topic,</text>
<text text-anchor="start" x="21" y="-18.5" font-family="Helvetica,sans-Serif" font-size="10.00"> char *buffer, uint32</text>
<text text-anchor="start" x="21" y="-6.5" font-family="Helvetica,sans-Serif" font-size="10.00">_t len)</text>
<polygon fill="#666666" stroke="#666666" points="0,-70 0,-70 117.5,-70 117.5,-70 0,-70"/>
<polygon fill="#666666" stroke="#666666" points="0,-54 0,-54 117.5,-54 117.5,-54 0,-54"/>
<polygon fill="none" stroke="#666666" points="0,0 0,-100 117.5,-100 117.5,0 0,0"/>
</a>
</g>
</g>
<!-- Node2 -->
<g id="Node000002" class="node">
<title>Node2</title>
<g id="a_Node000002"><a xlink:href="classtojhal_1_1comms__interfaces_1_1CommsInterface.html" target="_top" xlink:title="Communications interface abstract class.">
<polygon fill="white" stroke="none" points="117.5,-200 0,-200 0,-136 117.5,-136 117.5,-200"/>
<text text-anchor="start" x="4" y="-186.5" font-family="Helvetica,sans-Serif" font-size="10.00">tojhal::comms_interfaces</text>
<text text-anchor="start" x="19.38" y="-174.5" font-family="Helvetica,sans-Serif" font-size="10.00">::CommsInterface</text>
<text text-anchor="start" x="57.25" y="-158.5" font-family="Helvetica,sans-Serif" font-size="10.00"> </text>
<text text-anchor="start" x="57.25" y="-142.5" font-family="Helvetica,sans-Serif" font-size="10.00"> </text>
<polygon fill="#666666" stroke="#666666" points="0,-170 0,-170 117.5,-170 117.5,-170 0,-170"/>
<polygon fill="#666666" stroke="#666666" points="0,-154 0,-154 117.5,-154 117.5,-154 0,-154"/>
<polygon fill="none" stroke="#666666" points="0,-136 0,-200 117.5,-200 117.5,-136 0,-136"/>
</a>
</g>
</g>
<!-- Node2&#45;&gt;Node1 -->
<g id="edge1_Node000001_Node000002" class="edge">
<title>Node2&#45;&gt;Node1</title>
<g id="a_edge1_Node000001_Node000002"><a xlink:title=" ">
<path fill="none" stroke="#63b8ff" d="M58.75,-124.77C58.75,-116.69 58.75,-108.16 58.75,-99.89"/>
<polygon fill="none" stroke="#63b8ff" points="55.25,-124.71 58.75,-134.71 62.25,-124.71 55.25,-124.71"/>
</a>
</g>
</g>
</g>
</svg>
</svg>

<style type='text/css'>
<![CDATA[
[data-mouse-over-selected='false'] { opacity: 0.7; }
[data-mouse-over-selected='true']  { opacity: 1.0; }
]]>
</style>
<script type="application/ecmascript"><![CDATA[
document.addEventListener('DOMContentLoaded', (event) => {
  highlightEdges();
  highlightAdjacentNodes();
});
]]></script>
</svg>
