<?xml version="1.0" encoding="UTF-8" standalone="no"?>
<!DOCTYPE svg PUBLIC "-//W3C//DTD SVG 1.1//EN"
 "http://www.w3.org/Graphics/SVG/1.1/DTD/svg11.dtd">
<!-- Generated by graphviz version 12.2.1 (0)
 -->
<!-- Title: tojhal::comms_interfaces::CommsInterface Pages: 1 -->
<svg width="290pt" height="432pt"
 viewBox="0.00 0.00 289.50 432.00" xmlns="http://www.w3.org/2000/svg" xmlns:xlink="http://www.w3.org/1999/xlink">

<svg id="main" version="1.1" xmlns="http://www.w3.org/2000/svg" xmlns:xlink="http://www.w3.org/1999/xlink" xml:space="preserve">

<style type="text/css"><![CDATA[
.node, .edge {opacity: 0.7;}
.node.selected, .edge.selected {opacity: 1;}
.edge:hover path { stroke: red; }
.edge:hover polygon { stroke: red; fill: red; }
]]></style>
<script type="application/ecmascript" xlink:href="svg.min.js"/>
<svg id="graph" class="graph">
<g id="graph0" class="graph" transform="scale(1 1) rotate(0) translate(4 428)">
<title>tojhal::comms_interfaces::CommsInterface</title>
<!-- Node1 -->
<g id="Node000001" class="node">
<title>Node1</title>
<g id="a_Node000001"><a xlink:title="Communications interface abstract class.">
<polygon fill="#999999" stroke="none" points="192.5,-424 75,-424 75,-360 192.5,-360 192.5,-424"/>
<text text-anchor="start" x="79" y="-410.5" font-family="Helvetica,sans-Serif" font-size="10.00">tojhal::comms_interfaces</text>
<text text-anchor="start" x="94.38" y="-398.5" font-family="Helvetica,sans-Serif" font-size="10.00">::CommsInterface</text>
<text text-anchor="start" x="132.25" y="-382.5" font-family="Helvetica,sans-Serif" font-size="10.00"> </text>
<text text-anchor="start" x="132.25" y="-366.5" font-family="Helvetica,sans-Serif" font-size="10.00"> </text>
<polygon fill="#666666" stroke="#666666" points="75,-394 75,-394 192.5,-394 192.5,-394 75,-394"/>
<polygon fill="#666666" stroke="#666666" points="75,-378 75,-378 192.5,-378 192.5,-378 75,-378"/>
<polygon fill="none" stroke="#666666" points="75,-360 75,-424 192.5,-424 192.5,-360 75,-360"/>
</a>
</g>
</g>
<!-- Node2 -->
<g id="Node000002" class="node">
<title>Node2</title>
<g id="a_Node000002"><a xlink:href="classtojhal_1_1comms__interfaces_1_1PubSubInterface.html" target="_top" xlink:title="Abstract pub/sub communication interface.">
<polygon fill="white" stroke="none" points="117.5,-310 0,-310 0,-210 117.5,-210 117.5,-310"/>
<text text-anchor="start" x="4" y="-296.5" font-family="Helvetica,sans-Serif" font-size="10.00">tojhal::comms_interfaces</text>
<text text-anchor="start" x="19.38" y="-284.5" font-family="Helvetica,sans-Serif" font-size="10.00">::PubSubInterface</text>
<text text-anchor="start" x="57.25" y="-268.5" font-family="Helvetica,sans-Serif" font-size="10.00"> </text>
<text text-anchor="start" x="7.88" y="-252.5" font-family="Helvetica,sans-Serif" font-size="10.00">#</text>
<text text-anchor="start" x="21" y="-252.5" font-family="Helvetica,sans-Serif" font-size="10.00">void publish(const</text>
<text text-anchor="start" x="21" y="-240.5" font-family="Helvetica,sans-Serif" font-size="10.00"> std::string &amp;topic,</text>
<text text-anchor="start" x="21" y="-228.5" font-family="Helvetica,sans-Serif" font-size="10.00"> char *buffer, uint32</text>
<text text-anchor="start" x="21" y="-216.5" font-family="Helvetica,sans-Serif" font-size="10.00">_t len)</text>
<polygon fill="#666666" stroke="#666666" points="0,-280 0,-280 117.5,-280 117.5,-280 0,-280"/>
<polygon fill="#666666" stroke="#666666" points="0,-264 0,-264 117.5,-264 117.5,-264 0,-264"/>
<polygon fill="none" stroke="#666666" points="0,-210 0,-310 117.5,-310 117.5,-210 0,-210"/>
</a>
</g>
</g>
<!-- Node1&#45;&gt;Node2 -->
<g id="edge1_Node000001_Node000002" class="edge">
<title>Node1&#45;&gt;Node2</title>
<g id="a_edge1_Node000001_Node000002"><a xlink:title=" ">
<path fill="none" stroke="#63b8ff" d="M110.26,-350.28C102.87,-337.47 94.63,-323.2 86.95,-309.88"/>
<polygon fill="none" stroke="#63b8ff" points="107.19,-351.97 115.22,-358.88 113.25,-348.47 107.19,-351.97"/>
</a>
</g>
</g>
<!-- Node4 -->
<g id="Node000004" class="node">
<title>Node4</title>
<g id="a_Node000004"><a xlink:href="classtojhal_1_1comms__interfaces_1_1RegisterInterface.html" target="_top" xlink:title="Communication interface over registers. (Eg: I2C, SPI)">
<polygon fill="white" stroke="none" points="281.5,-324 136,-324 136,-196 281.5,-196 281.5,-324"/>
<text text-anchor="start" x="154" y="-310.5" font-family="Helvetica,sans-Serif" font-size="10.00">tojhal::comms_interfaces</text>
<text text-anchor="start" x="168.25" y="-298.5" font-family="Helvetica,sans-Serif" font-size="10.00">::RegisterInterface</text>
<text text-anchor="start" x="140" y="-282.5" font-family="Helvetica,sans-Serif" font-size="10.00">#</text>
<text text-anchor="start" x="149.25" y="-282.5" font-family="Helvetica,sans-Serif" font-size="10.00">uint8_t deviceAddr</text>
<text text-anchor="start" x="140" y="-266.5" font-family="Helvetica,sans-Serif" font-size="10.00">#</text>
<text text-anchor="start" x="149.25" y="-266.5" font-family="Helvetica,sans-Serif" font-size="10.00">virtual void readRegister</text>
<text text-anchor="start" x="149.25" y="-254.5" font-family="Helvetica,sans-Serif" font-size="10.00">(uint8_t address, uint32</text>
<text text-anchor="start" x="149.25" y="-242.5" font-family="Helvetica,sans-Serif" font-size="10.00">_t len, char *buffer)=0</text>
<text text-anchor="start" x="140" y="-226.5" font-family="Helvetica,sans-Serif" font-size="10.00">#</text>
<text text-anchor="start" x="149.25" y="-226.5" font-family="Helvetica,sans-Serif" font-size="10.00">virtual void writeRegister</text>
<text text-anchor="start" x="149.25" y="-214.5" font-family="Helvetica,sans-Serif" font-size="10.00">(uint8_t address, char *buffer,</text>
<text text-anchor="start" x="149.25" y="-202.5" font-family="Helvetica,sans-Serif" font-size="10.00"> uint32_t len)=0</text>
<polygon fill="#666666" stroke="#666666" points="136,-294 136,-294 281.5,-294 281.5,-294 136,-294"/>
<polygon fill="#666666" stroke="#666666" points="136,-278 136,-278 147.25,-278 147.25,-278 136,-278"/>
<polygon fill="#666666" stroke="#666666" points="147.25,-278 147.25,-278 281.5,-278 281.5,-278 147.25,-278"/>
<polygon fill="none" stroke="#666666" points="136,-196 136,-324 281.5,-324 281.5,-196 136,-196"/>
</a>
</g>
</g>
<!-- Node1&#45;&gt;Node4 -->
<g id="edge3_Node000001_Node000004" class="edge">
<title>Node1&#45;&gt;Node4</title>
<g id="a_edge3_Node000001_Node000004"><a xlink:title=" ">
<path fill="none" stroke="#63b8ff" d="M157.24,-350.28C162.1,-341.85 167.33,-332.79 172.53,-323.79"/>
<polygon fill="none" stroke="#63b8ff" points="154.25,-348.47 152.28,-358.88 160.31,-351.97 154.25,-348.47"/>
</a>
</g>
</g>
<!-- Node3 -->
<g id="Node000003" class="node">
<title>Node3</title>
<g id="a_Node000003"><a xlink:href="classtojhal_1_1comms__interfaces_1_1ZeroMQ.html" target="_top" xlink:title=" ">
<polygon fill="white" stroke="none" points="117.5,-112 0,-112 0,-48 117.5,-48 117.5,-112"/>
<text text-anchor="start" x="4" y="-98.5" font-family="Helvetica,sans-Serif" font-size="10.00">tojhal::comms_interfaces</text>
<text text-anchor="start" x="38.12" y="-86.5" font-family="Helvetica,sans-Serif" font-size="10.00">::ZeroMQ</text>
<text text-anchor="start" x="57.25" y="-70.5" font-family="Helvetica,sans-Serif" font-size="10.00"> </text>
<text text-anchor="start" x="57.25" y="-54.5" font-family="Helvetica,sans-Serif" font-size="10.00"> </text>
<polygon fill="#666666" stroke="#666666" points="0,-82 0,-82 117.5,-82 117.5,-82 0,-82"/>
<polygon fill="#666666" stroke="#666666" points="0,-66 0,-66 117.5,-66 117.5,-66 0,-66"/>
<polygon fill="none" stroke="#666666" points="0,-48 0,-112 117.5,-112 117.5,-48 0,-48"/>
</a>
</g>
</g>
<!-- Node2&#45;&gt;Node3 -->
<g id="edge2_Node000002_Node000003" class="edge">
<title>Node2&#45;&gt;Node3</title>
<g id="a_edge2_Node000002_Node000003"><a xlink:title=" ">
<path fill="none" stroke="#63b8ff" d="M58.75,-199.01C58.75,-169.79 58.75,-135.89 58.75,-111.94"/>
<polygon fill="none" stroke="#63b8ff" points="55.25,-198.85 58.75,-208.85 62.25,-198.85 55.25,-198.85"/>
</a>
</g>
</g>
<!-- Node5 -->
<g id="Node000005" class="node">
<title>Node5</title>
<g id="a_Node000005"><a xlink:href="classtojhal_1_1comms__interfaces_1_1I2C.html" target="_top" xlink:title="I2C communication interface.">
<polygon fill="white" stroke="none" points="278.38,-160 139.12,-160 139.12,0 278.38,0 278.38,-160"/>
<text text-anchor="start" x="143.12" y="-146.5" font-family="Helvetica,sans-Serif" font-size="10.00">tojhal::comms_interfaces::I2C</text>
<text text-anchor="start" x="207.25" y="-130.5" font-family="Helvetica,sans-Serif" font-size="10.00"> </text>
<text text-anchor="start" x="147.19" y="-114.5" font-family="Helvetica,sans-Serif" font-size="10.00">+</text>
<text text-anchor="start" x="161.25" y="-114.5" font-family="Helvetica,sans-Serif" font-size="10.00">I2C()</text>
<text text-anchor="start" x="147.19" y="-98.5" font-family="Helvetica,sans-Serif" font-size="10.00">+</text>
<text text-anchor="start" x="161.25" y="-98.5" font-family="Helvetica,sans-Serif" font-size="10.00">I2C(uint8_t device)</text>
<text text-anchor="start" x="147.19" y="-82.5" font-family="Helvetica,sans-Serif" font-size="10.00">+</text>
<text text-anchor="start" x="161.25" y="-82.5" font-family="Helvetica,sans-Serif" font-size="10.00">void readRegister(uint8</text>
<text text-anchor="start" x="161.25" y="-70.5" font-family="Helvetica,sans-Serif" font-size="10.00">_t address, uint32_t len,</text>
<text text-anchor="start" x="161.25" y="-58.5" font-family="Helvetica,sans-Serif" font-size="10.00"> char *buffer) override</text>
<text text-anchor="start" x="147.19" y="-42.5" font-family="Helvetica,sans-Serif" font-size="10.00">+</text>
<text text-anchor="start" x="161.25" y="-42.5" font-family="Helvetica,sans-Serif" font-size="10.00">void writeRegister</text>
<text text-anchor="start" x="161.25" y="-30.5" font-family="Helvetica,sans-Serif" font-size="10.00">(uint8_t address, char</text>
<text text-anchor="start" x="161.25" y="-18.5" font-family="Helvetica,sans-Serif" font-size="10.00"> *buffer, uint32_t len)</text>
<text text-anchor="start" x="161.25" y="-6.5" font-family="Helvetica,sans-Serif" font-size="10.00"> override</text>
<polygon fill="#666666" stroke="#666666" points="139.12,-142 139.12,-142 278.38,-142 278.38,-142 139.12,-142"/>
<polygon fill="#666666" stroke="#666666" points="139.12,-126 139.12,-126 278.38,-126 278.38,-126 139.12,-126"/>
<polygon fill="none" stroke="#666666" points="139.12,0 139.12,-160 278.38,-160 278.38,0 139.12,0"/>
</a>
</g>
</g>
<!-- Node4&#45;&gt;Node5 -->
<g id="edge4_Node000004_Node000005" class="edge">
<title>Node4&#45;&gt;Node5</title>
<g id="a_edge4_Node000004_Node000005"><a xlink:title=" ">
<path fill="none" stroke="#63b8ff" d="M208.75,-185C208.75,-176.65 208.75,-168.12 208.75,-159.72"/>
<polygon fill="none" stroke="#63b8ff" points="205.25,-184.73 208.75,-194.73 212.25,-184.73 205.25,-184.73"/>
</a>
</g>
</g>
</g>
</svg>
</svg>

<style type='text/css'>
<![CDATA[
[data-mouse-over-selected='false'] { opacity: 0.7; }
[data-mouse-over-selected='true']  { opacity: 1.0; }
]]>
</style>
<script type="application/ecmascript"><![CDATA[
document.addEventListener('DOMContentLoaded', (event) => {
  highlightEdges();
  highlightAdjacentNodes();
});
]]></script>
</svg>
