<?xml version="1.0" encoding="UTF-8" standalone="no"?>
<!DOCTYPE svg PUBLIC "-//W3C//DTD SVG 1.1//EN"
 "http://www.w3.org/Graphics/SVG/1.1/DTD/svg11.dtd">
<!-- Generated by graphviz version 12.2.1 (0)
 -->
<!-- Title: tojhal::devices::IMU&lt; InterfaceT &gt; Pages: 1 -->
<svg width="139pt" height="204pt"
 viewBox="0.00 0.00 139.25 204.00" xmlns="http://www.w3.org/2000/svg" xmlns:xlink="http://www.w3.org/1999/xlink">

<svg id="main" version="1.1" xmlns="http://www.w3.org/2000/svg" xmlns:xlink="http://www.w3.org/1999/xlink" xml:space="preserve">

<style type="text/css"><![CDATA[
.node, .edge {opacity: 0.7;}
.node.selected, .edge.selected {opacity: 1;}
.edge:hover path { stroke: red; }
.edge:hover polygon { stroke: red; fill: red; }
]]></style>
<script type="application/ecmascript" xlink:href="svg.min.js"/>
<svg id="graph" class="graph">
<g id="graph0" class="graph" transform="scale(1 1) rotate(0) translate(4 200)">
<title>tojhal::devices::IMU&lt; InterfaceT &gt;</title>
<!-- Node1 -->
<g id="Node000001" class="node">
<title>Node1</title>
<g id="a_Node000001"><a xlink:title="Abstract Inertial Measurement Unit device.">
<polygon fill="#999999" stroke="none" points="130.88,-96 0.38,-96 0.38,0 130.88,0 130.88,-96"/>
<text text-anchor="start" x="21.75" y="-82.5" font-family="Helvetica,sans-Serif" font-size="10.00">tojhal::devices::IMU</text>
<text text-anchor="start" x="34.5" y="-70.5" font-family="Helvetica,sans-Serif" font-size="10.00">&lt; InterfaceT &gt;</text>
<text text-anchor="start" x="64.12" y="-54.5" font-family="Helvetica,sans-Serif" font-size="10.00"> </text>
<text text-anchor="start" x="4.38" y="-38.5" font-family="Helvetica,sans-Serif" font-size="10.00">#</text>
<text text-anchor="start" x="13.62" y="-38.5" font-family="Helvetica,sans-Serif" font-size="10.00">virtual float getAccelX()=0</text>
<text text-anchor="start" x="4.38" y="-22.5" font-family="Helvetica,sans-Serif" font-size="10.00">#</text>
<text text-anchor="start" x="13.62" y="-22.5" font-family="Helvetica,sans-Serif" font-size="10.00">virtual float getAccelY()=0</text>
<text text-anchor="start" x="4.38" y="-6.5" font-family="Helvetica,sans-Serif" font-size="10.00">#</text>
<text text-anchor="start" x="13.62" y="-6.5" font-family="Helvetica,sans-Serif" font-size="10.00">virtual float getAccelZ()=0</text>
<polygon fill="#666666" stroke="#666666" points="0.38,-66 0.38,-66 130.88,-66 130.88,-66 0.38,-66"/>
<polygon fill="#666666" stroke="#666666" points="0.38,-50 0.38,-50 130.88,-50 130.88,-50 0.38,-50"/>
<polygon fill="none" stroke="#666666" points="0.38,0 0.38,-96 130.88,-96 130.88,0 0.38,0"/>
</a>
</g>
</g>
<!-- Node2 -->
<g id="Node000002" class="node">
<title>Node2</title>
<g id="a_Node000002"><a xlink:href="classtojhal_1_1devices_1_1Device.html" target="_top" xlink:title="Abstract device class. Has utility methods and a communication interface.">
<polygon fill="white" stroke="none" points="131.25,-196 0,-196 0,-132 131.25,-132 131.25,-196"/>
<text text-anchor="start" x="15.75" y="-182.5" font-family="Helvetica,sans-Serif" font-size="10.00">tojhal::devices::Device</text>
<text text-anchor="start" x="34.5" y="-170.5" font-family="Helvetica,sans-Serif" font-size="10.00">&lt; InterfaceT &gt;</text>
<text text-anchor="start" x="4" y="-154.5" font-family="Helvetica,sans-Serif" font-size="10.00">#</text>
<text text-anchor="start" x="13.25" y="-154.5" font-family="Helvetica,sans-Serif" font-size="10.00">InterfaceT deviceInterface</text>
<text text-anchor="start" x="64.12" y="-138.5" font-family="Helvetica,sans-Serif" font-size="10.00"> </text>
<polygon fill="#666666" stroke="#666666" points="0,-166 0,-166 131.25,-166 131.25,-166 0,-166"/>
<polygon fill="#666666" stroke="#666666" points="0,-150 0,-150 11.25,-150 11.25,-150 0,-150"/>
<polygon fill="#666666" stroke="#666666" points="11.25,-150 11.25,-150 131.25,-150 131.25,-150 11.25,-150"/>
<polygon fill="none" stroke="#666666" points="0,-132 0,-196 131.25,-196 131.25,-132 0,-132"/>
</a>
</g>
</g>
<!-- Node2&#45;&gt;Node1 -->
<g id="edge1_Node000001_Node000002" class="edge">
<title>Node2&#45;&gt;Node1</title>
<g id="a_edge1_Node000001_Node000002"><a xlink:title=" ">
<path fill="none" stroke="#63b8ff" d="M65.62,-120.64C65.62,-112.52 65.62,-103.98 65.62,-95.73"/>
<polygon fill="none" stroke="#63b8ff" points="62.13,-120.64 65.63,-130.64 69.13,-120.64 62.13,-120.64"/>
</a>
</g>
</g>
</g>
</svg>
</svg>

<style type='text/css'>
<![CDATA[
[data-mouse-over-selected='false'] { opacity: 0.7; }
[data-mouse-over-selected='true']  { opacity: 1.0; }
]]>
</style>
<script type="application/ecmascript"><![CDATA[
document.addEventListener('DOMContentLoaded', (event) => {
  highlightEdges();
  highlightAdjacentNodes();
});
]]></script>
</svg>
