<?xml version="1.0" encoding="UTF-8" standalone="no"?>
<!DOCTYPE svg PUBLIC "-//W3C//DTD SVG 1.1//EN"
 "http://www.w3.org/Graphics/SVG/1.1/DTD/svg11.dtd">
<!-- Generated by graphviz version 12.2.1 (0)
 -->
<!-- Title: tojhal::devices::ICM20602 Pages: 1 -->
<svg width="139pt" height="376pt"
 viewBox="0.00 0.00 138.50 376.00" xmlns="http://www.w3.org/2000/svg" xmlns:xlink="http://www.w3.org/1999/xlink">
<g id="graph0" class="graph" transform="scale(1 1) rotate(0) translate(4 372)">
<title>tojhal::devices::ICM20602</title>
<!-- Node1 -->
<g id="Node000001" class="node">
<title>Node1</title>
<g id="a_Node000001"><a xlink:title=" ">
<polygon fill="#999999" stroke="none" points="129.38,-100 1.12,-100 1.12,0 129.38,0 129.38,-100"/>
<text text-anchor="start" x="8.25" y="-86.5" font-family="Helvetica,sans-Serif" font-size="10.00">tojhal::devices::ICM20602</text>
<text text-anchor="start" x="63.75" y="-70.5" font-family="Helvetica,sans-Serif" font-size="10.00"> </text>
<text text-anchor="start" x="5.12" y="-54.5" font-family="Helvetica,sans-Serif" font-size="10.00">+</text>
<text text-anchor="start" x="15.12" y="-54.5" font-family="Helvetica,sans-Serif" font-size="10.00">ICM20602()</text>
<text text-anchor="start" x="5.12" y="-38.5" font-family="Helvetica,sans-Serif" font-size="10.00">+</text>
<text text-anchor="start" x="15.12" y="-38.5" font-family="Helvetica,sans-Serif" font-size="10.00">float getAccelX() override</text>
<text text-anchor="start" x="5.12" y="-22.5" font-family="Helvetica,sans-Serif" font-size="10.00">+</text>
<text text-anchor="start" x="15.12" y="-22.5" font-family="Helvetica,sans-Serif" font-size="10.00">float getAccelY() override</text>
<text text-anchor="start" x="5.12" y="-6.5" font-family="Helvetica,sans-Serif" font-size="10.00">+</text>
<text text-anchor="start" x="15.12" y="-6.5" font-family="Helvetica,sans-Serif" font-size="10.00">float getAccelZ() override</text>
<polygon fill="#666666" stroke="#666666" points="1.12,-82 1.12,-82 129.38,-82 129.38,-82 1.12,-82"/>
<polygon fill="#666666" stroke="#666666" points="1.12,-66 1.12,-66 129.38,-66 129.38,-66 1.12,-66"/>
<polygon fill="none" stroke="#666666" points="1.12,0 1.12,-100 129.38,-100 129.38,0 1.12,0"/>
</a>
</g>
</g>
<!-- Node2 -->
<g id="Node000002" class="node">
<title>Node2</title>
<g id="a_Node000002"><a xlink:href="classtojhal_1_1devices_1_1IMU.html" target="_top" xlink:title=" ">
<polygon fill="white" stroke="none" points="130.5,-244 0,-244 0,-136 130.5,-136 130.5,-244"/>
<text text-anchor="start" x="6" y="-230.5" font-family="Helvetica,sans-Serif" font-size="10.00">tojhal::devices::IMU</text>
<text text-anchor="start" x="6" y="-218.5" font-family="Helvetica,sans-Serif" font-size="10.00">&lt; tojhal::comms_interfaces</text>
<text text-anchor="start" x="49.88" y="-206.5" font-family="Helvetica,sans-Serif" font-size="10.00">::I2C &gt;</text>
<text text-anchor="start" x="63.75" y="-190.5" font-family="Helvetica,sans-Serif" font-size="10.00"> </text>
<text text-anchor="start" x="4" y="-174.5" font-family="Helvetica,sans-Serif" font-size="10.00">#</text>
<text text-anchor="start" x="13.25" y="-174.5" font-family="Helvetica,sans-Serif" font-size="10.00">virtual float getAccelX()=0</text>
<text text-anchor="start" x="4" y="-158.5" font-family="Helvetica,sans-Serif" font-size="10.00">#</text>
<text text-anchor="start" x="13.25" y="-158.5" font-family="Helvetica,sans-Serif" font-size="10.00">virtual float getAccelY()=0</text>
<text text-anchor="start" x="4" y="-142.5" font-family="Helvetica,sans-Serif" font-size="10.00">#</text>
<text text-anchor="start" x="13.25" y="-142.5" font-family="Helvetica,sans-Serif" font-size="10.00">virtual float getAccelZ()=0</text>
<polygon fill="#666666" stroke="#666666" points="0,-202 0,-202 130.5,-202 130.5,-202 0,-202"/>
<polygon fill="#666666" stroke="#666666" points="0,-186 0,-186 130.5,-186 130.5,-186 0,-186"/>
<polygon fill="none" stroke="#666666" points="0,-136 0,-244 130.5,-244 130.5,-136 0,-136"/>
</a>
</g>
</g>
<!-- Node2&#45;&gt;Node1 -->
<g id="edge1_Node000001_Node000002" class="edge">
<title>Node2&#45;&gt;Node1</title>
<g id="a_edge1_Node000001_Node000002"><a xlink:title=" ">
<path fill="none" stroke="#63b8ff" d="M65.25,-124.77C65.25,-116.44 65.25,-108 65.25,-99.97"/>
<polygon fill="none" stroke="#63b8ff" points="61.75,-124.53 65.25,-134.53 68.75,-124.53 61.75,-124.53"/>
</a>
</g>
</g>
<!-- Node3 -->
<g id="Node000003" class="node">
<title>Node3</title>
<g id="a_Node000003"><a xlink:href="classtojhal_1_1devices_1_1Device.html" target="_top" xlink:title=" ">
<polygon fill="white" stroke="none" points="128.62,-368 1.87,-368 1.87,-280 128.62,-280 128.62,-368"/>
<text text-anchor="start" x="6" y="-354.5" font-family="Helvetica,sans-Serif" font-size="10.00">tojhal::devices::Device</text>
<text text-anchor="start" x="6" y="-342.5" font-family="Helvetica,sans-Serif" font-size="10.00">&lt; tojhal::comms_interfaces</text>
<text text-anchor="start" x="49.88" y="-330.5" font-family="Helvetica,sans-Serif" font-size="10.00">::I2C &gt;</text>
<text text-anchor="start" x="5.88" y="-314.5" font-family="Helvetica,sans-Serif" font-size="10.00">#</text>
<text text-anchor="start" x="15.12" y="-314.5" font-family="Helvetica,sans-Serif" font-size="10.00">tojhal::comms_interfaces</text>
<text text-anchor="start" x="15.12" y="-302.5" font-family="Helvetica,sans-Serif" font-size="10.00">::I2C deviceInterface</text>
<text text-anchor="start" x="63.75" y="-286.5" font-family="Helvetica,sans-Serif" font-size="10.00"> </text>
<polygon fill="#666666" stroke="#666666" points="1.88,-326 1.88,-326 128.62,-326 128.62,-326 1.88,-326"/>
<polygon fill="#666666" stroke="#666666" points="1.88,-298 1.88,-298 13.12,-298 13.12,-298 1.88,-298"/>
<polygon fill="#666666" stroke="#666666" points="13.12,-298 13.12,-298 128.62,-298 128.62,-298 13.12,-298"/>
<polygon fill="none" stroke="#666666" points="1.88,-280 1.88,-368 128.62,-368 128.62,-280 1.88,-280"/>
</a>
</g>
</g>
<!-- Node3&#45;&gt;Node2 -->
<g id="edge2_Node000002_Node000003" class="edge">
<title>Node3&#45;&gt;Node2</title>
<g id="a_edge2_Node000002_Node000003"><a xlink:title=" ">
<path fill="none" stroke="#63b8ff" d="M65.25,-268.72C65.25,-260.49 65.25,-252 65.25,-243.8"/>
<polygon fill="none" stroke="#63b8ff" points="61.75,-268.63 65.25,-278.63 68.75,-268.63 61.75,-268.63"/>
</a>
</g>
</g>
</g>
</svg>
