<?xml version="1.0" encoding="UTF-8" standalone="no"?>
<!DOCTYPE svg PUBLIC "-//W3C//DTD SVG 1.1//EN"
 "http://www.w3.org/Graphics/SVG/1.1/DTD/svg11.dtd">
<!-- Generated by graphviz version 12.2.1 (0)
 -->
<!-- Title: tojhal::devices::ICM20602 Pages: 1 -->
<!--zoomable 840 -->

<svg id="main" version="1.1" xmlns="http://www.w3.org/2000/svg" xmlns:xlink="http://www.w3.org/1999/xlink" xml:space="preserve" onload="init(evt)">

<style type="text/css"><![CDATA[
.node, .edge {opacity: 0.7;}
.node.selected, .edge.selected {opacity: 1;}
.edge:hover path { stroke: red; }
.edge:hover polygon { stroke: red; fill: red; }
]]></style>

<defs>
  <circle id="rim" cx="0" cy="0" r="7"/>
  <circle id="rim2" cx="0" cy="0" r="3.5"/>
  <g id="zoomPlus">
    <use xlink:href="#rim" fill="#404040"><set attributeName="fill" to="#808080" begin="zoomplus.mouseover" end="zoomplus.mouseout"/></use>
    <path d="M-4,0h8M0,-4v8" fill="none" stroke="white" stroke-width="1.5" pointer-events="none"/>
  </g>
  <g id="zoomMin">
    <use xlink:href="#rim" fill="#404040"><set attributeName="fill" to="#808080" begin="zoomminus.mouseover" end="zoomminus.mouseout"/></use>
    <path d="M-4,0h8" fill="none" stroke="white" stroke-width="1.5" pointer-events="none"/>
  </g>
  <g id="arrowUp" transform="translate(30 24)">
    <use xlink:href="#rim"/>
    <path pointer-events="none" fill="none" stroke="white" stroke-width="1.5" d="M0,-3.0v7 M-2.5,-0.5L0,-3.0L2.5,-0.5"/>
  </g>
  <g id="arrowRight" transform="rotate(90) translate(36 -43)">
    <use xlink:href="#rim"/>
    <path pointer-events="none" fill="none" stroke="white" stroke-width="1.5" d="M0,-3.0v7 M-2.5,-0.5L0,-3.0L2.5,-0.5"/>
  </g>
  <g id="arrowDown" transform="rotate(180) translate(-30 -48)">
    <use xlink:href="#rim"/>
    <path pointer-events="none" fill="none" stroke="white" stroke-width="1.5" d="M0,-3.0v7 M-2.5,-0.5L0,-3.0L2.5,-0.5"/>
  </g>
  <g id="arrowLeft" transform="rotate(270) translate(-36 17)">
    <use xlink:href="#rim"/>
    <path pointer-events="none" fill="none" stroke="white" stroke-width="1.5" d="M0,-3.0v7 M-2.5,-0.5L0,-3.0L2.5,-0.5"/>
  </g>
  <g id="resetDef">
    <use xlink:href="#rim2" fill="#404040"><set attributeName="fill" to="#808080" begin="reset.mouseover" end="reset.mouseout"/></use>
  </g>
</defs>
<script type="application/ecmascript">
var viewWidth = 156;
var viewHeight = 840;
var sectionId = 'dynsection-1';
</script>
<script type="application/ecmascript" xlink:href="svg.min.js"/>
<svg id="graph" class="graph">
<g id="viewport">
<title>tojhal::devices::ICM20602</title>
<!-- Node1 -->
<g id="Node000001" class="node">
<title>Node1</title>
<g id="a_Node000001"><a xlink:title=" ">
<polygon fill="#999999" stroke="none" points="136.88,-100 8.62,-100 8.62,0 136.88,0 136.88,-100"/>
<text text-anchor="start" x="15.75" y="-86.5" font-family="Helvetica,sans-Serif" font-size="10.00">tojhal::devices::ICM20602</text>
<text text-anchor="start" x="71.25" y="-70.5" font-family="Helvetica,sans-Serif" font-size="10.00"> </text>
<text text-anchor="start" x="12.62" y="-54.5" font-family="Helvetica,sans-Serif" font-size="10.00">+</text>
<text text-anchor="start" x="22.62" y="-54.5" font-family="Helvetica,sans-Serif" font-size="10.00">ICM20602()</text>
<text text-anchor="start" x="12.62" y="-38.5" font-family="Helvetica,sans-Serif" font-size="10.00">+</text>
<text text-anchor="start" x="22.62" y="-38.5" font-family="Helvetica,sans-Serif" font-size="10.00">float getAccelX() override</text>
<text text-anchor="start" x="12.62" y="-22.5" font-family="Helvetica,sans-Serif" font-size="10.00">+</text>
<text text-anchor="start" x="22.62" y="-22.5" font-family="Helvetica,sans-Serif" font-size="10.00">float getAccelY() override</text>
<text text-anchor="start" x="12.62" y="-6.5" font-family="Helvetica,sans-Serif" font-size="10.00">+</text>
<text text-anchor="start" x="22.62" y="-6.5" font-family="Helvetica,sans-Serif" font-size="10.00">float getAccelZ() override</text>
<polygon fill="#666666" stroke="#666666" points="8.62,-82 8.62,-82 136.88,-82 136.88,-82 8.62,-82"/>
<polygon fill="#666666" stroke="#666666" points="8.62,-66 8.62,-66 136.88,-66 136.88,-66 8.62,-66"/>
<polygon fill="none" stroke="#666666" points="8.62,0 8.62,-100 136.88,-100 136.88,0 8.62,0"/>
</a>
</g>
</g>
<!-- Node2 -->
<g id="Node000002" class="node">
<title>Node2</title>
<g id="a_Node000002"><a xlink:href="classtojhal_1_1devices_1_1IMU.html" target="_top" xlink:title=" ">
<polygon fill="white" stroke="none" points="138,-245 7.5,-245 7.5,-137 138,-137 138,-245"/>
<text text-anchor="start" x="13.5" y="-231.5" font-family="Helvetica,sans-Serif" font-size="10.00">tojhal::devices::IMU</text>
<text text-anchor="start" x="13.5" y="-219.5" font-family="Helvetica,sans-Serif" font-size="10.00">&lt; tojhal::comms_interfaces</text>
<text text-anchor="start" x="57.38" y="-207.5" font-family="Helvetica,sans-Serif" font-size="10.00">::I2C &gt;</text>
<text text-anchor="start" x="71.25" y="-191.5" font-family="Helvetica,sans-Serif" font-size="10.00"> </text>
<text text-anchor="start" x="11.5" y="-175.5" font-family="Helvetica,sans-Serif" font-size="10.00">#</text>
<text text-anchor="start" x="20.75" y="-175.5" font-family="Helvetica,sans-Serif" font-size="10.00">virtual float getAccelX()=0</text>
<text text-anchor="start" x="11.5" y="-159.5" font-family="Helvetica,sans-Serif" font-size="10.00">#</text>
<text text-anchor="start" x="20.75" y="-159.5" font-family="Helvetica,sans-Serif" font-size="10.00">virtual float getAccelY()=0</text>
<text text-anchor="start" x="11.5" y="-143.5" font-family="Helvetica,sans-Serif" font-size="10.00">#</text>
<text text-anchor="start" x="20.75" y="-143.5" font-family="Helvetica,sans-Serif" font-size="10.00">virtual float getAccelZ()=0</text>
<polygon fill="#666666" stroke="#666666" points="7.5,-203 7.5,-203 138,-203 138,-203 7.5,-203"/>
<polygon fill="#666666" stroke="#666666" points="7.5,-187 7.5,-187 138,-187 138,-187 7.5,-187"/>
<polygon fill="none" stroke="#666666" points="7.5,-137 7.5,-245 138,-245 138,-137 7.5,-137"/>
</a>
</g>
</g>
<!-- Node2&#45;&gt;Node1 -->
<g id="edge1_Node000001_Node000002" class="edge">
<title>Node2&#45;&gt;Node1</title>
<g id="a_edge1_Node000001_Node000002"><a xlink:title=" ">
<path fill="none" stroke="#63b8ff" d="M72.75,-125.68C72.75,-116.94 72.75,-108.09 72.75,-99.69"/>
<polygon fill="none" stroke="#63b8ff" points="69.25,-125.54 72.75,-135.54 76.25,-125.54 69.25,-125.54"/>
</a>
</g>
</g>
<!-- Node3 -->
<g id="Node000003" class="node">
<title>Node3</title>
<g id="a_Node000003"><a xlink:href="classtojhal_1_1devices_1_1Device.html" target="_top" xlink:title=" ">
<polygon fill="white" stroke="none" points="136,-358 9.5,-358 9.5,-282 136,-282 136,-358"/>
<text text-anchor="start" x="13.5" y="-344.5" font-family="Helvetica,sans-Serif" font-size="10.00">tojhal::devices::Device</text>
<text text-anchor="start" x="13.5" y="-332.5" font-family="Helvetica,sans-Serif" font-size="10.00">&lt; tojhal::comms_interfaces</text>
<text text-anchor="start" x="57.38" y="-320.5" font-family="Helvetica,sans-Serif" font-size="10.00">::I2C &gt;</text>
<text text-anchor="start" x="71.25" y="-304.5" font-family="Helvetica,sans-Serif" font-size="10.00"> </text>
<text text-anchor="start" x="71.25" y="-288.5" font-family="Helvetica,sans-Serif" font-size="10.00"> </text>
<polygon fill="#666666" stroke="#666666" points="9.5,-316 9.5,-316 136,-316 136,-316 9.5,-316"/>
<polygon fill="#666666" stroke="#666666" points="9.5,-300 9.5,-300 136,-300 136,-300 9.5,-300"/>
<polygon fill="none" stroke="#666666" points="9.5,-282 9.5,-358 136,-358 136,-282 9.5,-282"/>
</a>
</g>
</g>
<!-- Node3&#45;&gt;Node2 -->
<g id="edge2_Node000002_Node000003" class="edge">
<title>Node3&#45;&gt;Node2</title>
<g id="a_edge2_Node000002_Node000003"><a xlink:title=" ">
<path fill="none" stroke="#63b8ff" d="M72.75,-270.9C72.75,-262.35 72.75,-253.39 72.75,-244.71"/>
<polygon fill="none" stroke="#63b8ff" points="69.25,-270.75 72.75,-280.75 76.25,-270.75 69.25,-270.75"/>
</a>
</g>
</g>
<!-- Node4 -->
<g id="Node000004" class="node">
<title>Node4</title>
<g id="a_Node000004"><a xlink:href="classtojhal_1_1comms__interfaces_1_1I2C.html" target="_top" xlink:title="I2C communication interface.">
<polygon fill="white" stroke="none" points="142.38,-566 3.12,-566 3.12,-406 142.38,-406 142.38,-566"/>
<text text-anchor="start" x="7.12" y="-552.5" font-family="Helvetica,sans-Serif" font-size="10.00">tojhal::comms_interfaces::I2C</text>
<text text-anchor="start" x="71.25" y="-536.5" font-family="Helvetica,sans-Serif" font-size="10.00"> </text>
<text text-anchor="start" x="11.19" y="-520.5" font-family="Helvetica,sans-Serif" font-size="10.00">+</text>
<text text-anchor="start" x="25.25" y="-520.5" font-family="Helvetica,sans-Serif" font-size="10.00">I2C()</text>
<text text-anchor="start" x="11.19" y="-504.5" font-family="Helvetica,sans-Serif" font-size="10.00">+</text>
<text text-anchor="start" x="25.25" y="-504.5" font-family="Helvetica,sans-Serif" font-size="10.00">I2C(uint8_t device)</text>
<text text-anchor="start" x="11.19" y="-488.5" font-family="Helvetica,sans-Serif" font-size="10.00">+</text>
<text text-anchor="start" x="25.25" y="-488.5" font-family="Helvetica,sans-Serif" font-size="10.00">void readRegister(uint8</text>
<text text-anchor="start" x="25.25" y="-476.5" font-family="Helvetica,sans-Serif" font-size="10.00">_t address, uint32_t len,</text>
<text text-anchor="start" x="25.25" y="-464.5" font-family="Helvetica,sans-Serif" font-size="10.00"> char *buffer) override</text>
<text text-anchor="start" x="11.19" y="-448.5" font-family="Helvetica,sans-Serif" font-size="10.00">+</text>
<text text-anchor="start" x="25.25" y="-448.5" font-family="Helvetica,sans-Serif" font-size="10.00">void writeRegister</text>
<text text-anchor="start" x="25.25" y="-436.5" font-family="Helvetica,sans-Serif" font-size="10.00">(uint8_t address, char</text>
<text text-anchor="start" x="25.25" y="-424.5" font-family="Helvetica,sans-Serif" font-size="10.00"> *buffer, uint32_t len)</text>
<text text-anchor="start" x="25.25" y="-412.5" font-family="Helvetica,sans-Serif" font-size="10.00"> override</text>
<polygon fill="#666666" stroke="#666666" points="3.12,-548 3.12,-548 142.38,-548 142.38,-548 3.12,-548"/>
<polygon fill="#666666" stroke="#666666" points="3.12,-532 3.12,-532 142.38,-532 142.38,-532 3.12,-532"/>
<polygon fill="none" stroke="#666666" points="3.12,-406 3.12,-566 142.38,-566 142.38,-406 3.12,-406"/>
</a>
</g>
</g>
<!-- Node4&#45;&gt;Node3 -->
<g id="edge3_Node000003_Node000004" class="edge">
<title>Node4&#45;&gt;Node3</title>
<g id="a_edge3_Node000003_Node000004"><a xlink:title=" ">
<path fill="none" stroke="#63b8ff" d="M72.75,-406.36C72.75,-394.19 72.75,-381.92 72.75,-370.63"/>
<polygon fill="none" stroke="#63b8ff" points="72.75,-370.78 68.75,-364.78 72.75,-358.78 76.75,-364.78 72.75,-370.78"/>
</a>
</g>
<text text-anchor="middle" x="110.25" y="-378.5" font-family="Helvetica,sans-Serif" font-size="10.00" fill="grey"> #deviceInterface</text>
</g>
<!-- Node5 -->
<g id="Node000005" class="node">
<title>Node5</title>
<g id="a_Node000005"><a xlink:href="classtojhal_1_1comms__interfaces_1_1RegisterInterface.html" target="_top" xlink:title="Communication interface over registers. (Eg: I2C, SPI)">
<polygon fill="white" stroke="none" points="145.5,-731 0,-731 0,-603 145.5,-603 145.5,-731"/>
<text text-anchor="start" x="18" y="-717.5" font-family="Helvetica,sans-Serif" font-size="10.00">tojhal::comms_interfaces</text>
<text text-anchor="start" x="32.25" y="-705.5" font-family="Helvetica,sans-Serif" font-size="10.00">::RegisterInterface</text>
<text text-anchor="start" x="4" y="-689.5" font-family="Helvetica,sans-Serif" font-size="10.00">#</text>
<text text-anchor="start" x="13.25" y="-689.5" font-family="Helvetica,sans-Serif" font-size="10.00">uint8_t deviceAddr</text>
<text text-anchor="start" x="4" y="-673.5" font-family="Helvetica,sans-Serif" font-size="10.00">#</text>
<text text-anchor="start" x="13.25" y="-673.5" font-family="Helvetica,sans-Serif" font-size="10.00">virtual void readRegister</text>
<text text-anchor="start" x="13.25" y="-661.5" font-family="Helvetica,sans-Serif" font-size="10.00">(uint8_t address, uint32</text>
<text text-anchor="start" x="13.25" y="-649.5" font-family="Helvetica,sans-Serif" font-size="10.00">_t len, char *buffer)=0</text>
<text text-anchor="start" x="4" y="-633.5" font-family="Helvetica,sans-Serif" font-size="10.00">#</text>
<text text-anchor="start" x="13.25" y="-633.5" font-family="Helvetica,sans-Serif" font-size="10.00">virtual void writeRegister</text>
<text text-anchor="start" x="13.25" y="-621.5" font-family="Helvetica,sans-Serif" font-size="10.00">(uint8_t address, char *buffer,</text>
<text text-anchor="start" x="13.25" y="-609.5" font-family="Helvetica,sans-Serif" font-size="10.00"> uint32_t len)=0</text>
<polygon fill="#666666" stroke="#666666" points="0,-701 0,-701 145.5,-701 145.5,-701 0,-701"/>
<polygon fill="#666666" stroke="#666666" points="0,-685 0,-685 11.25,-685 11.25,-685 0,-685"/>
<polygon fill="#666666" stroke="#666666" points="11.25,-685 11.25,-685 145.5,-685 145.5,-685 11.25,-685"/>
<polygon fill="none" stroke="#666666" points="0,-603 0,-731 145.5,-731 145.5,-603 0,-603"/>
</a>
</g>
</g>
<!-- Node5&#45;&gt;Node4 -->
<g id="edge4_Node000004_Node000005" class="edge">
<title>Node5&#45;&gt;Node4</title>
<g id="a_edge4_Node000004_Node000005"><a xlink:title=" ">
<path fill="none" stroke="#63b8ff" d="M72.75,-591.63C72.75,-583.08 72.75,-574.34 72.75,-565.74"/>
<polygon fill="none" stroke="#63b8ff" points="69.25,-591.63 72.75,-601.63 76.25,-591.63 69.25,-591.63"/>
</a>
</g>
</g>
<!-- Node6 -->
<g id="Node000006" class="node">
<title>Node6</title>
<g id="a_Node000006"><a xlink:href="classtojhal_1_1comms__interfaces_1_1CommsInterface.html" target="_top" xlink:title="Communications interface abstract class.">
<polygon fill="white" stroke="none" points="131.5,-832 14,-832 14,-768 131.5,-768 131.5,-832"/>
<text text-anchor="start" x="18" y="-818.5" font-family="Helvetica,sans-Serif" font-size="10.00">tojhal::comms_interfaces</text>
<text text-anchor="start" x="33.38" y="-806.5" font-family="Helvetica,sans-Serif" font-size="10.00">::CommsInterface</text>
<text text-anchor="start" x="71.25" y="-790.5" font-family="Helvetica,sans-Serif" font-size="10.00"> </text>
<text text-anchor="start" x="71.25" y="-774.5" font-family="Helvetica,sans-Serif" font-size="10.00"> </text>
<polygon fill="#666666" stroke="#666666" points="14,-802 14,-802 131.5,-802 131.5,-802 14,-802"/>
<polygon fill="#666666" stroke="#666666" points="14,-786 14,-786 131.5,-786 131.5,-786 14,-786"/>
<polygon fill="none" stroke="#666666" points="14,-768 14,-832 131.5,-832 131.5,-768 14,-768"/>
</a>
</g>
</g>
<!-- Node6&#45;&gt;Node5 -->
<g id="edge5_Node000005_Node000006" class="edge">
<title>Node6&#45;&gt;Node5</title>
<g id="a_edge5_Node000005_Node000006"><a xlink:title=" ">
<path fill="none" stroke="#63b8ff" d="M72.75,-756.93C72.75,-748.58 72.75,-739.63 72.75,-730.76"/>
<polygon fill="none" stroke="#63b8ff" points="69.25,-756.77 72.75,-766.77 76.25,-756.77 69.25,-756.77"/>
</a>
</g>
</g>
</g>
</svg>

<g id="navigator" transform="translate(0 0)" fill="#404254">
  <rect fill="#f2f5e9" fill-opacity="0.5" stroke="#606060" stroke-width=".5" x="0" y="0" width="60" height="60"/>
  <use id="zoomplus" xlink:href="#zoomPlus" x="17" y="9" onmousedown="handleZoom(evt,'in')"/>
  <use id="zoomminus" xlink:href="#zoomMin" x="42" y="9" onmousedown="handleZoom(evt,'out')"/>
  <use id="reset" xlink:href="#resetDef" x="30" y="36" onmousedown="handleReset()"/>
   <use id="arrowup" xlink:href="#arrowUp" x="0" y="0" onmousedown="handlePan(0,-1)"/>
  <use id="arrowright" xlink:href="#arrowRight" x="0" y="0" onmousedown="handlePan(1,0)"/>
  <use id="arrowdown" xlink:href="#arrowDown" x="0" y="0" onmousedown="handlePan(0,1)"/>
  <use id="arrowleft" xlink:href="#arrowLeft" x="0" y="0" onmousedown="handlePan(-1,0)"/>
</g>
<svg viewBox="0 0 15 15" width="100%" height="30px" preserveAspectRatio="xMaxYMin meet">
 <g id="arrow_out" transform="scale(0.3 0.3)">
  <a xlink:href="classtojhal_1_1devices_1_1ICM20602__coll__graph_org.svg" target="_base">
   <rect id="button" ry="5" rx="5" y="6" x="6" height="38" width="38"
        fill="#f2f5e9" fill-opacity="0.5" stroke="#606060" stroke-width="1.0"/>
   <path id="arrow"
     d="M 11.500037,31.436501 C 11.940474,20.09759 22.043105,11.32322 32.158766,21.979434 L 37.068811,17.246167 C 37.068811,17.246167 37.088388,32 37.088388,32 L 22.160133,31.978069 C 22.160133,31.978069 26.997745,27.140456 26.997745,27.140456 C 18.528582,18.264221 13.291696,25.230495 11.500037,31.436501 z"
     style="fill:#404040;"/>
  </a>
 </g>
</svg>

<style type='text/css'>
<![CDATA[
[data-mouse-over-selected='false'] { opacity: 0.7; }
[data-mouse-over-selected='true']  { opacity: 1.0; }
]]>
</style>
<script type="application/ecmascript"><![CDATA[
document.addEventListener('DOMContentLoaded', (event) => {
  highlightEdges();
  highlightAdjacentNodes();
});
]]></script>
</svg>
