<?xml version="1.0" encoding="UTF-8" standalone="no"?>
<!DOCTYPE svg PUBLIC "-//W3C//DTD SVG 1.1//EN"
 "http://www.w3.org/Graphics/SVG/1.1/DTD/svg11.dtd">
<!-- Generated by graphviz version 12.2.1 (0)
 -->
<!-- Title: tojhal::devices::Device&lt; InterfaceT &gt; Pages: 1 -->
<svg width="310pt" height="204pt"
 viewBox="0.00 0.00 309.75 204.00" xmlns="http://www.w3.org/2000/svg" xmlns:xlink="http://www.w3.org/1999/xlink">

<svg id="main" version="1.1" xmlns="http://www.w3.org/2000/svg" xmlns:xlink="http://www.w3.org/1999/xlink" xml:space="preserve">

<style type="text/css"><![CDATA[
.node, .edge {opacity: 0.7;}
.node.selected, .edge.selected {opacity: 1;}
.edge:hover path { stroke: red; }
.edge:hover polygon { stroke: red; fill: red; }
]]></style>
<script type="application/ecmascript" xlink:href="svg.min.js"/>
<svg id="graph" class="graph">
<g id="graph0" class="graph" transform="scale(1 1) rotate(0) translate(4 200)">
<title>tojhal::devices::Device&lt; InterfaceT &gt;</title>
<!-- Node1 -->
<g id="Node000001" class="node">
<title>Node1</title>
<g id="a_Node000001"><a xlink:title="Abstract device class. Has utility methods and a communication interface.">
<polygon fill="#999999" stroke="none" points="222.12,-196 90.88,-196 90.88,-132 222.12,-132 222.12,-196"/>
<text text-anchor="start" x="106.62" y="-182.5" font-family="Helvetica,sans-Serif" font-size="10.00">tojhal::devices::Device</text>
<text text-anchor="start" x="125.38" y="-170.5" font-family="Helvetica,sans-Serif" font-size="10.00">&lt; InterfaceT &gt;</text>
<text text-anchor="start" x="94.88" y="-154.5" font-family="Helvetica,sans-Serif" font-size="10.00">#</text>
<text text-anchor="start" x="104.12" y="-154.5" font-family="Helvetica,sans-Serif" font-size="10.00">InterfaceT deviceInterface</text>
<text text-anchor="start" x="155" y="-138.5" font-family="Helvetica,sans-Serif" font-size="10.00"> </text>
<polygon fill="#666666" stroke="#666666" points="90.88,-166 90.88,-166 222.12,-166 222.12,-166 90.88,-166"/>
<polygon fill="#666666" stroke="#666666" points="90.88,-150 90.88,-150 102.12,-150 102.12,-150 90.88,-150"/>
<polygon fill="#666666" stroke="#666666" points="102.12,-150 102.12,-150 222.12,-150 222.12,-150 102.12,-150"/>
<polygon fill="none" stroke="#666666" points="90.88,-132 90.88,-196 222.12,-196 222.12,-132 90.88,-132"/>
</a>
</g>
</g>
<!-- Node2 -->
<g id="Node000002" class="node">
<title>Node2</title>
<g id="a_Node000002"><a xlink:href="classtojhal_1_1devices_1_1EnvironmentalSensor.html" target="_top" xlink:title="Environmental sensor. Measures temperature, humidity and pressure.">
<polygon fill="white" stroke="none" points="153,-96 0,-96 0,0 153,0 153,-96"/>
<text text-anchor="start" x="10.88" y="-82.5" font-family="Helvetica,sans-Serif" font-size="10.00">tojhal::devices::Environmental</text>
<text text-anchor="start" x="30" y="-70.5" font-family="Helvetica,sans-Serif" font-size="10.00">Sensor&lt; InterfaceT &gt;</text>
<text text-anchor="start" x="75" y="-54.5" font-family="Helvetica,sans-Serif" font-size="10.00"> </text>
<text text-anchor="start" x="4" y="-38.5" font-family="Helvetica,sans-Serif" font-size="10.00">#</text>
<text text-anchor="start" x="13.25" y="-38.5" font-family="Helvetica,sans-Serif" font-size="10.00">virtual float getTemperature()=0</text>
<text text-anchor="start" x="4" y="-22.5" font-family="Helvetica,sans-Serif" font-size="10.00">#</text>
<text text-anchor="start" x="13.25" y="-22.5" font-family="Helvetica,sans-Serif" font-size="10.00">virtual float getHumidity()=0</text>
<text text-anchor="start" x="4" y="-6.5" font-family="Helvetica,sans-Serif" font-size="10.00">#</text>
<text text-anchor="start" x="13.25" y="-6.5" font-family="Helvetica,sans-Serif" font-size="10.00">virtual float getPressure()=0</text>
<polygon fill="#666666" stroke="#666666" points="0,-66 0,-66 153,-66 153,-66 0,-66"/>
<polygon fill="#666666" stroke="#666666" points="0,-50 0,-50 153,-50 153,-50 0,-50"/>
<polygon fill="none" stroke="#666666" points="0,0 0,-96 153,-96 153,0 0,0"/>
</a>
</g>
</g>
<!-- Node1&#45;&gt;Node2 -->
<g id="edge1_Node000001_Node000002" class="edge">
<title>Node1&#45;&gt;Node2</title>
<g id="a_edge1_Node000001_Node000002"><a xlink:title=" ">
<path fill="none" stroke="#63b8ff" d="M128.36,-122.9C122.2,-114.12 115.62,-104.75 109.29,-95.73"/>
<polygon fill="none" stroke="#63b8ff" points="125.37,-124.74 133.98,-130.91 131.1,-120.71 125.37,-124.74"/>
</a>
</g>
</g>
<!-- Node3 -->
<g id="Node000003" class="node">
<title>Node3</title>
<g id="a_Node000003"><a xlink:href="classtojhal_1_1devices_1_1IMU.html" target="_top" xlink:title="Abstract Inertial Measurement Unit device.">
<polygon fill="white" stroke="none" points="301.75,-96 171.25,-96 171.25,0 301.75,0 301.75,-96"/>
<text text-anchor="start" x="192.62" y="-82.5" font-family="Helvetica,sans-Serif" font-size="10.00">tojhal::devices::IMU</text>
<text text-anchor="start" x="205.38" y="-70.5" font-family="Helvetica,sans-Serif" font-size="10.00">&lt; InterfaceT &gt;</text>
<text text-anchor="start" x="235" y="-54.5" font-family="Helvetica,sans-Serif" font-size="10.00"> </text>
<text text-anchor="start" x="175.25" y="-38.5" font-family="Helvetica,sans-Serif" font-size="10.00">#</text>
<text text-anchor="start" x="184.5" y="-38.5" font-family="Helvetica,sans-Serif" font-size="10.00">virtual float getAccelX()=0</text>
<text text-anchor="start" x="175.25" y="-22.5" font-family="Helvetica,sans-Serif" font-size="10.00">#</text>
<text text-anchor="start" x="184.5" y="-22.5" font-family="Helvetica,sans-Serif" font-size="10.00">virtual float getAccelY()=0</text>
<text text-anchor="start" x="175.25" y="-6.5" font-family="Helvetica,sans-Serif" font-size="10.00">#</text>
<text text-anchor="start" x="184.5" y="-6.5" font-family="Helvetica,sans-Serif" font-size="10.00">virtual float getAccelZ()=0</text>
<polygon fill="#666666" stroke="#666666" points="171.25,-66 171.25,-66 301.75,-66 301.75,-66 171.25,-66"/>
<polygon fill="#666666" stroke="#666666" points="171.25,-50 171.25,-50 301.75,-50 301.75,-50 171.25,-50"/>
<polygon fill="none" stroke="#666666" points="171.25,0 171.25,-96 301.75,-96 301.75,0 171.25,0"/>
</a>
</g>
</g>
<!-- Node1&#45;&gt;Node3 -->
<g id="edge2_Node000001_Node000003" class="edge">
<title>Node1&#45;&gt;Node3</title>
<g id="a_edge2_Node000001_Node000003"><a xlink:title=" ">
<path fill="none" stroke="#63b8ff" d="M184.64,-122.9C190.8,-114.12 197.38,-104.75 203.71,-95.73"/>
<polygon fill="none" stroke="#63b8ff" points="181.9,-120.71 179.02,-130.91 187.63,-124.74 181.9,-120.71"/>
</a>
</g>
</g>
</g>
</svg>
</svg>

<style type='text/css'>
<![CDATA[
[data-mouse-over-selected='false'] { opacity: 0.7; }
[data-mouse-over-selected='true']  { opacity: 1.0; }
]]>
</style>
<script type="application/ecmascript"><![CDATA[
document.addEventListener('DOMContentLoaded', (event) => {
  highlightEdges();
  highlightAdjacentNodes();
});
]]></script>
</svg>
