<?xml version="1.0" encoding="UTF-8" standalone="no"?>
<!DOCTYPE svg PUBLIC "-//W3C//DTD SVG 1.1//EN"
 "http://www.w3.org/Graphics/SVG/1.1/DTD/svg11.dtd">
<!-- Generated by graphviz version 12.2.1 (0)
 -->
<!-- Title: tojhal::devices::EnvironmentalSensor&lt; InterfaceT &gt; Pages: 1 -->
<svg width="161pt" height="204pt"
 viewBox="0.00 0.00 161.00 204.00" xmlns="http://www.w3.org/2000/svg" xmlns:xlink="http://www.w3.org/1999/xlink">
<g id="graph0" class="graph" transform="scale(1 1) rotate(0) translate(4 200)">
<title>tojhal::devices::EnvironmentalSensor&lt; InterfaceT &gt;</title>
<!-- Node1 -->
<g id="Node000001" class="node">
<title>Node1</title>
<g id="a_Node000001"><a xlink:title="Environmental sensor. Measures temperature, humidity and pressure.">
<polygon fill="#999999" stroke="none" points="153,-96 0,-96 0,0 153,0 153,-96"/>
<text text-anchor="start" x="10.88" y="-82.5" font-family="Helvetica,sans-Serif" font-size="10.00">tojhal::devices::Environmental</text>
<text text-anchor="start" x="30" y="-70.5" font-family="Helvetica,sans-Serif" font-size="10.00">Sensor&lt; InterfaceT &gt;</text>
<text text-anchor="start" x="75" y="-54.5" font-family="Helvetica,sans-Serif" font-size="10.00"> </text>
<text text-anchor="start" x="4" y="-38.5" font-family="Helvetica,sans-Serif" font-size="10.00">#</text>
<text text-anchor="start" x="13.25" y="-38.5" font-family="Helvetica,sans-Serif" font-size="10.00">virtual float getTemperature()=0</text>
<text text-anchor="start" x="4" y="-22.5" font-family="Helvetica,sans-Serif" font-size="10.00">#</text>
<text text-anchor="start" x="13.25" y="-22.5" font-family="Helvetica,sans-Serif" font-size="10.00">virtual float getHumidity()=0</text>
<text text-anchor="start" x="4" y="-6.5" font-family="Helvetica,sans-Serif" font-size="10.00">#</text>
<text text-anchor="start" x="13.25" y="-6.5" font-family="Helvetica,sans-Serif" font-size="10.00">virtual float getPressure()=0</text>
<polygon fill="#666666" stroke="#666666" points="0,-66 0,-66 153,-66 153,-66 0,-66"/>
<polygon fill="#666666" stroke="#666666" points="0,-50 0,-50 153,-50 153,-50 0,-50"/>
<polygon fill="none" stroke="#666666" points="0,0 0,-96 153,-96 153,0 0,0"/>
</a>
</g>
</g>
<!-- Node2 -->
<g id="Node000002" class="node">
<title>Node2</title>
<g id="a_Node000002"><a xlink:href="classtojhal_1_1devices_1_1Device.html" target="_top" xlink:title="Abstract device class. Has utility methods and a communication interface.">
<polygon fill="white" stroke="none" points="142.12,-196 10.88,-196 10.88,-132 142.12,-132 142.12,-196"/>
<text text-anchor="start" x="26.62" y="-182.5" font-family="Helvetica,sans-Serif" font-size="10.00">tojhal::devices::Device</text>
<text text-anchor="start" x="45.38" y="-170.5" font-family="Helvetica,sans-Serif" font-size="10.00">&lt; InterfaceT &gt;</text>
<text text-anchor="start" x="14.88" y="-154.5" font-family="Helvetica,sans-Serif" font-size="10.00">#</text>
<text text-anchor="start" x="24.12" y="-154.5" font-family="Helvetica,sans-Serif" font-size="10.00">InterfaceT deviceInterface</text>
<text text-anchor="start" x="75" y="-138.5" font-family="Helvetica,sans-Serif" font-size="10.00"> </text>
<polygon fill="#666666" stroke="#666666" points="10.88,-166 10.88,-166 142.12,-166 142.12,-166 10.88,-166"/>
<polygon fill="#666666" stroke="#666666" points="10.88,-150 10.88,-150 22.12,-150 22.12,-150 10.88,-150"/>
<polygon fill="#666666" stroke="#666666" points="22.12,-150 22.12,-150 142.12,-150 142.12,-150 22.12,-150"/>
<polygon fill="none" stroke="#666666" points="10.88,-132 10.88,-196 142.12,-196 142.12,-132 10.88,-132"/>
</a>
</g>
</g>
<!-- Node2&#45;&gt;Node1 -->
<g id="edge1_Node000001_Node000002" class="edge">
<title>Node2&#45;&gt;Node1</title>
<g id="a_edge1_Node000001_Node000002"><a xlink:title=" ">
<path fill="none" stroke="#63b8ff" d="M76.5,-120.64C76.5,-112.52 76.5,-103.98 76.5,-95.73"/>
<polygon fill="none" stroke="#63b8ff" points="73,-120.64 76.5,-130.64 80,-120.64 73,-120.64"/>
</a>
</g>
</g>
</g>
</svg>
