<?xml version="1.0" encoding="UTF-8" standalone="no"?>
<!DOCTYPE svg PUBLIC "-//W3C//DTD SVG 1.1//EN"
 "http://www.w3.org/Graphics/SVG/1.1/DTD/svg11.dtd">
<!-- Generated by graphviz version 12.2.1 (0)
 -->
<!-- Title: include/tojhal/comms_interfaces/CommsInterface.hpp Pages: 1 -->
<svg width="535pt" height="300pt"
 viewBox="0.00 0.00 535.12 300.00" xmlns="http://www.w3.org/2000/svg" xmlns:xlink="http://www.w3.org/1999/xlink">
<g id="graph0" class="graph" transform="scale(1 1) rotate(0) translate(4 296)">
<title>include/tojhal/comms_interfaces/CommsInterface.hpp</title>
<!-- Node1 -->
<g id="Node000001" class="node">
<title>Node1</title>
<g id="a_Node000001"><a xlink:title=" ">
<polygon fill="#999999" stroke="#666666" points="259,-292 100.5,-292 100.5,-260 259,-260 259,-292"/>
<text text-anchor="start" x="108.5" y="-278.5" font-family="Helvetica,sans-Serif" font-size="10.00">include/tojhal/comms</text>
<text text-anchor="middle" x="179.75" y="-266.5" font-family="Helvetica,sans-Serif" font-size="10.00">_interfaces/CommsInterface.hpp</text>
</a>
</g>
</g>
<!-- Node2 -->
<g id="Node000002" class="node">
<title>Node2</title>
<g id="a_Node000002"><a xlink:href="PubSubInterface_8hpp.html" target="_top" xlink:title=" ">
<polygon fill="white" stroke="#666666" points="170,-224 11.5,-224 11.5,-192 170,-192 170,-224"/>
<text text-anchor="start" x="19.5" y="-210.5" font-family="Helvetica,sans-Serif" font-size="10.00">include/tojhal/comms</text>
<text text-anchor="middle" x="90.75" y="-198.5" font-family="Helvetica,sans-Serif" font-size="10.00">_interfaces/PubSubInterface.hpp</text>
</a>
</g>
</g>
<!-- Node1&#45;&gt;Node2 -->
<g id="edge1_Node000001_Node000002" class="edge">
<title>Node1&#45;&gt;Node2</title>
<g id="a_edge1_Node000001_Node000002"><a xlink:title=" ">
<path fill="none" stroke="#63b8ff" d="M149.91,-252.87C137.33,-243.55 123,-232.91 111.59,-224.45"/>
<polygon fill="#63b8ff" stroke="#63b8ff" points="147.77,-255.65 157.89,-258.79 151.94,-250.02 147.77,-255.65"/>
</a>
</g>
</g>
<!-- Node3 -->
<g id="Node000003" class="node">
<title>Node3</title>
<g id="a_Node000003"><a xlink:href="RegisterInterface_8hpp.html" target="_top" xlink:title=" ">
<polygon fill="white" stroke="#666666" points="349.12,-224 188.38,-224 188.38,-192 349.12,-192 349.12,-224"/>
<text text-anchor="start" x="196.38" y="-210.5" font-family="Helvetica,sans-Serif" font-size="10.00">include/tojhal/comms</text>
<text text-anchor="middle" x="268.75" y="-198.5" font-family="Helvetica,sans-Serif" font-size="10.00">_interfaces/RegisterInterface.hpp</text>
</a>
</g>
</g>
<!-- Node1&#45;&gt;Node3 -->
<g id="edge2_Node000001_Node000003" class="edge">
<title>Node1&#45;&gt;Node3</title>
<g id="a_edge2_Node000001_Node000003"><a xlink:title=" ">
<path fill="none" stroke="#63b8ff" d="M209.59,-252.87C222.17,-243.55 236.5,-232.91 247.91,-224.45"/>
<polygon fill="#63b8ff" stroke="#63b8ff" points="207.56,-250.02 201.61,-258.79 211.73,-255.65 207.56,-250.02"/>
</a>
</g>
</g>
<!-- Node4 -->
<g id="Node000004" class="node">
<title>Node4</title>
<g id="a_Node000004"><a xlink:href="I2C_8hpp.html" target="_top" xlink:title=" ">
<polygon fill="white" stroke="#666666" points="322.88,-156 214.62,-156 214.62,-124 322.88,-124 322.88,-156"/>
<text text-anchor="start" x="222.62" y="-142.5" font-family="Helvetica,sans-Serif" font-size="10.00">include/tojhal/comms</text>
<text text-anchor="middle" x="268.75" y="-130.5" font-family="Helvetica,sans-Serif" font-size="10.00">_interfaces/I2C.hpp</text>
</a>
</g>
</g>
<!-- Node3&#45;&gt;Node4 -->
<g id="edge3_Node000003_Node000004" class="edge">
<title>Node3&#45;&gt;Node4</title>
<g id="a_edge3_Node000003_Node000004"><a xlink:title=" ">
<path fill="none" stroke="#63b8ff" d="M268.75,-180.31C268.75,-172.12 268.75,-163.38 268.75,-156.22"/>
<polygon fill="#63b8ff" stroke="#63b8ff" points="265.25,-180.18 268.75,-190.18 272.25,-180.18 265.25,-180.18"/>
</a>
</g>
</g>
<!-- Node5 -->
<g id="Node000005" class="node">
<title>Node5</title>
<g id="a_Node000005"><a xlink:href="BME280_8hpp.html" target="_top" xlink:title=" ">
<polygon fill="white" stroke="#666666" points="126.62,-88 16.88,-88 16.88,-56 126.62,-56 126.62,-88"/>
<text text-anchor="start" x="24.88" y="-74.5" font-family="Helvetica,sans-Serif" font-size="10.00">include/tojhal/devices</text>
<text text-anchor="middle" x="71.75" y="-62.5" font-family="Helvetica,sans-Serif" font-size="10.00">/BME280.hpp</text>
</a>
</g>
</g>
<!-- Node4&#45;&gt;Node5 -->
<g id="edge4_Node000004_Node000005" class="edge">
<title>Node4&#45;&gt;Node5</title>
<g id="a_edge4_Node000004_Node000005"><a xlink:title=" ">
<path fill="none" stroke="#63b8ff" d="M211.89,-119.95C182.09,-109.97 146.06,-97.89 117.99,-88.49"/>
<polygon fill="#63b8ff" stroke="#63b8ff" points="210.53,-123.19 221.13,-123.05 212.76,-116.55 210.53,-123.19"/>
</a>
</g>
</g>
<!-- Node7 -->
<g id="Node000007" class="node">
<title>Node7</title>
<g id="a_Node000007"><a xlink:href="ICM20602_8hpp.html" target="_top" xlink:title=" ">
<polygon fill="white" stroke="#666666" points="259.62,-88 149.88,-88 149.88,-56 259.62,-56 259.62,-88"/>
<text text-anchor="start" x="157.88" y="-74.5" font-family="Helvetica,sans-Serif" font-size="10.00">include/tojhal/devices</text>
<text text-anchor="middle" x="204.75" y="-62.5" font-family="Helvetica,sans-Serif" font-size="10.00">/ICM20602.hpp</text>
</a>
</g>
</g>
<!-- Node4&#45;&gt;Node7 -->
<g id="edge6_Node000004_Node000007" class="edge">
<title>Node4&#45;&gt;Node7</title>
<g id="a_edge6_Node000004_Node000007"><a xlink:title=" ">
<path fill="none" stroke="#63b8ff" d="M245.89,-115.43C237.12,-106.38 227.34,-96.29 219.51,-88.22"/>
<polygon fill="#63b8ff" stroke="#63b8ff" points="243.38,-117.86 252.85,-122.61 248.4,-112.99 243.38,-117.86"/>
</a>
</g>
</g>
<!-- Node9 -->
<g id="Node000009" class="node">
<title>Node9</title>
<g id="a_Node000009"><a xlink:href="I2C_8cpp.html" target="_top" xlink:title=" ">
<polygon fill="white" stroke="#666666" points="390.12,-88 277.38,-88 277.38,-56 390.12,-56 390.12,-88"/>
<text text-anchor="start" x="285.38" y="-74.5" font-family="Helvetica,sans-Serif" font-size="10.00">src/comms_interfaces</text>
<text text-anchor="middle" x="333.75" y="-62.5" font-family="Helvetica,sans-Serif" font-size="10.00">/I2C.cpp</text>
</a>
</g>
</g>
<!-- Node4&#45;&gt;Node9 -->
<g id="edge8_Node000004_Node000009" class="edge">
<title>Node4&#45;&gt;Node9</title>
<g id="a_edge8_Node000004_Node000009"><a xlink:title=" ">
<path fill="none" stroke="#63b8ff" d="M291.69,-115.71C300.67,-106.59 310.73,-96.37 318.76,-88.22"/>
<polygon fill="#63b8ff" stroke="#63b8ff" points="289.41,-113.03 284.89,-122.61 294.4,-117.95 289.41,-113.03"/>
</a>
</g>
</g>
<!-- Node10 -->
<g id="Node000010" class="node">
<title>Node10</title>
<g id="a_Node000010"><a xlink:href="Device_8cpp.html" target="_top" xlink:title=" ">
<polygon fill="white" stroke="#666666" points="527.12,-82 408.38,-82 408.38,-62 527.12,-62 527.12,-82"/>
<text text-anchor="middle" x="467.75" y="-68.5" font-family="Helvetica,sans-Serif" font-size="10.00">src/devices/Device.cpp</text>
</a>
</g>
</g>
<!-- Node4&#45;&gt;Node10 -->
<g id="edge9_Node000004_Node000010" class="edge">
<title>Node4&#45;&gt;Node10</title>
<g id="a_edge9_Node000004_Node000010"><a xlink:title=" ">
<path fill="none" stroke="#63b8ff" d="M326.08,-119.99C363.16,-107.69 409.82,-92.21 439.23,-82.46"/>
<polygon fill="#63b8ff" stroke="#63b8ff" points="325.23,-116.58 316.84,-123.05 327.44,-123.22 325.23,-116.58"/>
</a>
</g>
</g>
<!-- Node6 -->
<g id="Node000006" class="node">
<title>Node6</title>
<g id="a_Node000006"><a xlink:href="BME280_8cpp.html" target="_top" xlink:title=" ">
<polygon fill="white" stroke="#666666" points="125.5,-20 0,-20 0,0 125.5,0 125.5,-20"/>
<text text-anchor="middle" x="62.75" y="-6.5" font-family="Helvetica,sans-Serif" font-size="10.00">src/devices/BME280.cpp</text>
</a>
</g>
</g>
<!-- Node5&#45;&gt;Node6 -->
<g id="edge5_Node000005_Node000006" class="edge">
<title>Node5&#45;&gt;Node6</title>
<g id="a_edge5_Node000005_Node000006"><a xlink:title=" ">
<path fill="none" stroke="#63b8ff" d="M67.76,-44.37C66.47,-35.81 65.13,-26.87 64.16,-20.41"/>
<polygon fill="#63b8ff" stroke="#63b8ff" points="64.26,-44.68 69.21,-54.05 71.19,-43.64 64.26,-44.68"/>
</a>
</g>
</g>
<!-- Node8 -->
<g id="Node000008" class="node">
<title>Node8</title>
<g id="a_Node000008"><a xlink:href="ICM20602_8cpp.html" target="_top" xlink:title=" ">
<polygon fill="white" stroke="#666666" points="276.25,-20 143.25,-20 143.25,0 276.25,0 276.25,-20"/>
<text text-anchor="middle" x="209.75" y="-6.5" font-family="Helvetica,sans-Serif" font-size="10.00">src/devices/ICM20602.cpp</text>
</a>
</g>
</g>
<!-- Node7&#45;&gt;Node8 -->
<g id="edge7_Node000007_Node000008" class="edge">
<title>Node7&#45;&gt;Node8</title>
<g id="a_edge7_Node000007_Node000008"><a xlink:title=" ">
<path fill="none" stroke="#63b8ff" d="M206.99,-44.08C207.7,-35.6 208.43,-26.8 208.97,-20.41"/>
<polygon fill="#63b8ff" stroke="#63b8ff" points="203.51,-43.78 206.16,-54.04 210.48,-44.37 203.51,-43.78"/>
</a>
</g>
</g>
</g>
</svg>
