<?xml version="1.0" encoding="UTF-8" standalone="no"?>
<!DOCTYPE svg PUBLIC "-//W3C//DTD SVG 1.1//EN"
 "http://www.w3.org/Graphics/SVG/1.1/DTD/svg11.dtd">
<!-- Generated by graphviz version 12.2.1 (0)
 -->
<!-- Title: src/devices/Device.cpp Pages: 1 -->
<svg width="329pt" height="232pt"
 viewBox="0.00 0.00 328.50 232.00" xmlns="http://www.w3.org/2000/svg" xmlns:xlink="http://www.w3.org/1999/xlink">
<g id="graph0" class="graph" transform="scale(1 1) rotate(0) translate(4 228)">
<title>src/devices/Device.cpp</title>
<!-- Node1 -->
<g id="Node000001" class="node">
<title>Node1</title>
<g id="a_Node000001"><a xlink:title=" ">
<polygon fill="#999999" stroke="#666666" points="195.62,-224 76.88,-224 76.88,-204 195.62,-204 195.62,-224"/>
<text text-anchor="middle" x="136.25" y="-210.5" font-family="Helvetica,sans-Serif" font-size="10.00">src/devices/Device.cpp</text>
</a>
</g>
</g>
<!-- Node2 -->
<g id="Node000002" class="node">
<title>Node2</title>
<g id="a_Node000002"><a xlink:href="Device_8hpp.html" target="_top" xlink:title=" ">
<polygon fill="white" stroke="#666666" points="128.5,-162 0,-162 0,-142 128.5,-142 128.5,-162"/>
<text text-anchor="middle" x="64.25" y="-148.5" font-family="Helvetica,sans-Serif" font-size="10.00">tojhal/devices/Device.hpp</text>
</a>
</g>
</g>
<!-- Node1&#45;&gt;Node2 -->
<g id="edge1_Node000001_Node000002" class="edge">
<title>Node1&#45;&gt;Node2</title>
<g id="a_edge1_Node000001_Node000002"><a xlink:title=" ">
<path fill="none" stroke="#63b8ff" d="M125,-203.62C114.05,-194.5 97.18,-180.45 84,-169.46"/>
<polygon fill="#63b8ff" stroke="#63b8ff" points="86.27,-166.79 76.35,-163.08 81.79,-172.17 86.27,-166.79"/>
</a>
</g>
</g>
<!-- Node3 -->
<g id="Node000003" class="node">
<title>Node3</title>
<g id="a_Node000003"><a xlink:href="I2C_8hpp.html" target="_top" xlink:title=" ">
<polygon fill="white" stroke="#666666" points="269.5,-168 147,-168 147,-136 269.5,-136 269.5,-168"/>
<text text-anchor="start" x="155" y="-154.5" font-family="Helvetica,sans-Serif" font-size="10.00">tojhal/comms_interfaces</text>
<text text-anchor="middle" x="208.25" y="-142.5" font-family="Helvetica,sans-Serif" font-size="10.00">/I2C.hpp</text>
</a>
</g>
</g>
<!-- Node1&#45;&gt;Node3 -->
<g id="edge2_Node000001_Node000003" class="edge">
<title>Node1&#45;&gt;Node3</title>
<g id="a_edge2_Node000001_Node000003"><a xlink:title=" ">
<path fill="none" stroke="#63b8ff" d="M147.5,-203.62C156.51,-196.11 169.54,-185.26 181.22,-175.52"/>
<polygon fill="#63b8ff" stroke="#63b8ff" points="183.2,-178.43 188.64,-169.34 178.72,-173.06 183.2,-178.43"/>
</a>
</g>
</g>
<!-- Node4 -->
<g id="Node000004" class="node">
<title>Node4</title>
<g id="a_Node000004"><a xlink:href="RegisterInterface_8hpp.html" target="_top" xlink:title=" ">
<polygon fill="white" stroke="#666666" points="269.5,-100 147,-100 147,-68 269.5,-68 269.5,-100"/>
<text text-anchor="start" x="155" y="-86.5" font-family="Helvetica,sans-Serif" font-size="10.00">tojhal/comms_interfaces</text>
<text text-anchor="middle" x="208.25" y="-74.5" font-family="Helvetica,sans-Serif" font-size="10.00">/RegisterInterface.hpp</text>
</a>
</g>
</g>
<!-- Node3&#45;&gt;Node4 -->
<g id="edge3_Node000003_Node000004" class="edge">
<title>Node3&#45;&gt;Node4</title>
<g id="a_edge3_Node000003_Node000004"><a xlink:title=" ">
<path fill="none" stroke="#63b8ff" d="M208.25,-135.69C208.25,-128.53 208.25,-119.79 208.25,-111.59"/>
<polygon fill="#63b8ff" stroke="#63b8ff" points="211.75,-111.74 208.25,-101.74 204.75,-111.74 211.75,-111.74"/>
</a>
</g>
</g>
<!-- Node5 -->
<g id="Node000005" class="node">
<title>Node5</title>
<g id="a_Node000005"><a xlink:title=" ">
<polygon fill="#e0e0e0" stroke="#999999" points="179.88,-26 134.62,-26 134.62,-6 179.88,-6 179.88,-26"/>
<text text-anchor="middle" x="157.25" y="-12.5" font-family="Helvetica,sans-Serif" font-size="10.00">cstdint</text>
</a>
</g>
</g>
<!-- Node4&#45;&gt;Node5 -->
<g id="edge4_Node000004_Node000005" class="edge">
<title>Node4&#45;&gt;Node5</title>
<g id="a_edge4_Node000004_Node000005"><a xlink:title=" ">
<path fill="none" stroke="#63b8ff" d="M196.42,-67.69C188.93,-58 179.2,-45.41 171.31,-35.2"/>
<polygon fill="#63b8ff" stroke="#63b8ff" points="174.26,-33.29 165.37,-27.51 168.72,-37.57 174.26,-33.29"/>
</a>
</g>
</g>
<!-- Node6 -->
<g id="Node000006" class="node">
<title>Node6</title>
<g id="a_Node000006"><a xlink:href="CommsInterface_8hpp.html" target="_top" xlink:title=" ">
<polygon fill="white" stroke="#666666" points="320.5,-32 198,-32 198,0 320.5,0 320.5,-32"/>
<text text-anchor="start" x="206" y="-18.5" font-family="Helvetica,sans-Serif" font-size="10.00">tojhal/comms_interfaces</text>
<text text-anchor="middle" x="259.25" y="-6.5" font-family="Helvetica,sans-Serif" font-size="10.00">/CommsInterface.hpp</text>
</a>
</g>
</g>
<!-- Node4&#45;&gt;Node6 -->
<g id="edge5_Node000004_Node000006" class="edge">
<title>Node4&#45;&gt;Node6</title>
<g id="a_edge5_Node000004_Node000006"><a xlink:title=" ">
<path fill="none" stroke="#63b8ff" d="M220.08,-67.69C226.13,-59.86 233.64,-50.15 240.46,-41.32"/>
<polygon fill="#63b8ff" stroke="#63b8ff" points="243.22,-43.48 246.56,-33.42 237.68,-39.2 243.22,-43.48"/>
</a>
</g>
</g>
</g>
</svg>
