<?xml version="1.0" encoding="UTF-8" standalone="no"?>
<!DOCTYPE svg PUBLIC "-//W3C//DTD SVG 1.1//EN"
 "http://www.w3.org/Graphics/SVG/1.1/DTD/svg11.dtd">
<!-- Generated by graphviz version 12.2.1 (0)
 -->
<!-- Title: include/tojhal/devices/Device.hpp Pages: 1 -->
<svg width="407pt" height="232pt"
 viewBox="0.00 0.00 407.12 232.00" xmlns="http://www.w3.org/2000/svg" xmlns:xlink="http://www.w3.org/1999/xlink">
<g id="graph0" class="graph" transform="scale(1 1) rotate(0) translate(4 228)">
<title>include/tojhal/devices/Device.hpp</title>
<!-- Node1 -->
<g id="Node000001" class="node">
<title>Node1</title>
<g id="a_Node000001"><a xlink:title=" ">
<polygon fill="#999999" stroke="#666666" points="262.62,-224 152.88,-224 152.88,-192 262.62,-192 262.62,-224"/>
<text text-anchor="start" x="160.88" y="-210.5" font-family="Helvetica,sans-Serif" font-size="10.00">include/tojhal/devices</text>
<text text-anchor="middle" x="207.75" y="-198.5" font-family="Helvetica,sans-Serif" font-size="10.00">/Device.hpp</text>
</a>
</g>
</g>
<!-- Node2 -->
<g id="Node000002" class="node">
<title>Node2</title>
<g id="a_Node000002"><a xlink:href="EnvironmentalSensor_8hpp.html" target="_top" xlink:title=" ">
<polygon fill="white" stroke="#666666" points="134.12,-156 3.38,-156 3.38,-124 134.12,-124 134.12,-156"/>
<text text-anchor="start" x="11.38" y="-142.5" font-family="Helvetica,sans-Serif" font-size="10.00">include/tojhal/devices</text>
<text text-anchor="middle" x="68.75" y="-130.5" font-family="Helvetica,sans-Serif" font-size="10.00">/EnvironmentalSensor.hpp</text>
</a>
</g>
</g>
<!-- Node1&#45;&gt;Node2 -->
<g id="edge1_Node000001_Node000002" class="edge">
<title>Node1&#45;&gt;Node2</title>
<g id="a_edge1_Node000001_Node000002"><a xlink:title=" ">
<path fill="none" stroke="#63b8ff" d="M164.8,-186.61C144.27,-176.86 120.09,-165.38 101.14,-156.38"/>
<polygon fill="#63b8ff" stroke="#63b8ff" points="163.26,-189.75 173.79,-190.88 166.26,-183.43 163.26,-189.75"/>
</a>
</g>
</g>
<!-- Node5 -->
<g id="Node000005" class="node">
<title>Node5</title>
<g id="a_Node000005"><a xlink:href="IMU_8hpp.html" target="_top" xlink:title=" ">
<polygon fill="white" stroke="#666666" points="262.62,-156 152.88,-156 152.88,-124 262.62,-124 262.62,-156"/>
<text text-anchor="start" x="160.88" y="-142.5" font-family="Helvetica,sans-Serif" font-size="10.00">include/tojhal/devices</text>
<text text-anchor="middle" x="207.75" y="-130.5" font-family="Helvetica,sans-Serif" font-size="10.00">/IMU.hpp</text>
</a>
</g>
</g>
<!-- Node1&#45;&gt;Node5 -->
<g id="edge4_Node000001_Node000005" class="edge">
<title>Node1&#45;&gt;Node5</title>
<g id="a_edge4_Node000001_Node000005"><a xlink:title=" ">
<path fill="none" stroke="#63b8ff" d="M207.75,-180.31C207.75,-172.12 207.75,-163.38 207.75,-156.22"/>
<polygon fill="#63b8ff" stroke="#63b8ff" points="204.25,-180.18 207.75,-190.18 211.25,-180.18 204.25,-180.18"/>
</a>
</g>
</g>
<!-- Node8 -->
<g id="Node000008" class="node">
<title>Node8</title>
<g id="a_Node000008"><a xlink:href="Device_8cpp.html" target="_top" xlink:title=" ">
<polygon fill="white" stroke="#666666" points="399.12,-150 280.38,-150 280.38,-130 399.12,-130 399.12,-150"/>
<text text-anchor="middle" x="339.75" y="-136.5" font-family="Helvetica,sans-Serif" font-size="10.00">src/devices/Device.cpp</text>
</a>
</g>
</g>
<!-- Node1&#45;&gt;Node8 -->
<g id="edge7_Node000001_Node000008" class="edge">
<title>Node1&#45;&gt;Node8</title>
<g id="a_edge7_Node000001_Node000008"><a xlink:title=" ">
<path fill="none" stroke="#63b8ff" d="M248.98,-186.39C273.01,-174.37 302.16,-159.79 320.83,-150.46"/>
<polygon fill="#63b8ff" stroke="#63b8ff" points="247.43,-183.25 240.05,-190.85 250.56,-189.51 247.43,-183.25"/>
</a>
</g>
</g>
<!-- Node3 -->
<g id="Node000003" class="node">
<title>Node3</title>
<g id="a_Node000003"><a xlink:href="BME280_8hpp.html" target="_top" xlink:title=" ">
<polygon fill="white" stroke="#666666" points="121.62,-88 11.88,-88 11.88,-56 121.62,-56 121.62,-88"/>
<text text-anchor="start" x="19.88" y="-74.5" font-family="Helvetica,sans-Serif" font-size="10.00">include/tojhal/devices</text>
<text text-anchor="middle" x="66.75" y="-62.5" font-family="Helvetica,sans-Serif" font-size="10.00">/BME280.hpp</text>
</a>
</g>
</g>
<!-- Node2&#45;&gt;Node3 -->
<g id="edge2_Node000002_Node000003" class="edge">
<title>Node2&#45;&gt;Node3</title>
<g id="a_edge2_Node000002_Node000003"><a xlink:title=" ">
<path fill="none" stroke="#63b8ff" d="M67.94,-112.31C67.69,-104.12 67.43,-95.38 67.21,-88.22"/>
<polygon fill="#63b8ff" stroke="#63b8ff" points="64.44,-112.29 68.24,-122.18 71.44,-112.08 64.44,-112.29"/>
</a>
</g>
</g>
<!-- Node4 -->
<g id="Node000004" class="node">
<title>Node4</title>
<g id="a_Node000004"><a xlink:href="BME280_8cpp.html" target="_top" xlink:title=" ">
<polygon fill="white" stroke="#666666" points="125.5,-20 0,-20 0,0 125.5,0 125.5,-20"/>
<text text-anchor="middle" x="62.75" y="-6.5" font-family="Helvetica,sans-Serif" font-size="10.00">src/devices/BME280.cpp</text>
</a>
</g>
</g>
<!-- Node3&#45;&gt;Node4 -->
<g id="edge3_Node000003_Node000004" class="edge">
<title>Node3&#45;&gt;Node4</title>
<g id="a_edge3_Node000003_Node000004"><a xlink:title=" ">
<path fill="none" stroke="#63b8ff" d="M64.96,-44.08C64.39,-35.6 63.8,-26.8 63.38,-20.41"/>
<polygon fill="#63b8ff" stroke="#63b8ff" points="61.46,-44.29 65.62,-54.04 68.45,-43.83 61.46,-44.29"/>
</a>
</g>
</g>
<!-- Node6 -->
<g id="Node000006" class="node">
<title>Node6</title>
<g id="a_Node000006"><a xlink:href="ICM20602_8hpp.html" target="_top" xlink:title=" ">
<polygon fill="white" stroke="#666666" points="263.62,-88 153.88,-88 153.88,-56 263.62,-56 263.62,-88"/>
<text text-anchor="start" x="161.88" y="-74.5" font-family="Helvetica,sans-Serif" font-size="10.00">include/tojhal/devices</text>
<text text-anchor="middle" x="208.75" y="-62.5" font-family="Helvetica,sans-Serif" font-size="10.00">/ICM20602.hpp</text>
</a>
</g>
</g>
<!-- Node5&#45;&gt;Node6 -->
<g id="edge5_Node000005_Node000006" class="edge">
<title>Node5&#45;&gt;Node6</title>
<g id="a_edge5_Node000005_Node000006"><a xlink:title=" ">
<path fill="none" stroke="#63b8ff" d="M208.15,-112.31C208.28,-104.12 208.41,-95.38 208.52,-88.22"/>
<polygon fill="#63b8ff" stroke="#63b8ff" points="204.66,-112.13 208,-122.18 211.66,-112.23 204.66,-112.13"/>
</a>
</g>
</g>
<!-- Node7 -->
<g id="Node000007" class="node">
<title>Node7</title>
<g id="a_Node000007"><a xlink:href="ICM20602_8cpp.html" target="_top" xlink:title=" ">
<polygon fill="white" stroke="#666666" points="276.25,-20 143.25,-20 143.25,0 276.25,0 276.25,-20"/>
<text text-anchor="middle" x="209.75" y="-6.5" font-family="Helvetica,sans-Serif" font-size="10.00">src/devices/ICM20602.cpp</text>
</a>
</g>
</g>
<!-- Node6&#45;&gt;Node7 -->
<g id="edge6_Node000006_Node000007" class="edge">
<title>Node6&#45;&gt;Node7</title>
<g id="a_edge6_Node000006_Node000007"><a xlink:title=" ">
<path fill="none" stroke="#63b8ff" d="M209.2,-44.08C209.34,-35.6 209.49,-26.8 209.59,-20.41"/>
<polygon fill="#63b8ff" stroke="#63b8ff" points="205.7,-43.98 209.03,-54.04 212.7,-44.09 205.7,-43.98"/>
</a>
</g>
</g>
</g>
</svg>
