<?xml version="1.0" encoding="UTF-8" standalone="no"?>
<!DOCTYPE svg PUBLIC "-//W3C//DTD SVG 1.1//EN"
 "http://www.w3.org/Graphics/SVG/1.1/DTD/svg11.dtd">
<!-- Generated by graphviz version 12.2.1 (0)
 -->
<!-- Title: src/devices/ICM20602.cpp Pages: 1 -->
<svg width="329pt" height="288pt"
 viewBox="0.00 0.00 328.50 288.00" xmlns="http://www.w3.org/2000/svg" xmlns:xlink="http://www.w3.org/1999/xlink">

<svg id="main" version="1.1" xmlns="http://www.w3.org/2000/svg" xmlns:xlink="http://www.w3.org/1999/xlink" xml:space="preserve">

<style type="text/css"><![CDATA[
.node, .edge {opacity: 0.7;}
.node.selected, .edge.selected {opacity: 1;}
.edge:hover path { stroke: red; }
.edge:hover polygon { stroke: red; fill: red; }
]]></style>
<script type="application/ecmascript" xlink:href="svg.min.js"/>
<svg id="graph" class="graph">
<g id="graph0" class="graph" transform="scale(1 1) rotate(0) translate(4 284)">
<title>src/devices/ICM20602.cpp</title>
<!-- Node1 -->
<g id="Node000001" class="node">
<title>Node1</title>
<g id="a_Node000001"><a xlink:title=" ">
<polygon fill="#999999" stroke="#666666" points="202.75,-280 69.75,-280 69.75,-260 202.75,-260 202.75,-280"/>
<text text-anchor="middle" x="136.25" y="-266.5" font-family="Helvetica,sans-Serif" font-size="10.00">src/devices/ICM20602.cpp</text>
</a>
</g>
</g>
<!-- Node2 -->
<g id="Node000002" class="node">
<title>Node2</title>
<g id="a_Node000002"><a xlink:href="ICM20602_8hpp.html" target="_top" xlink:title=" ">
<polygon fill="white" stroke="#666666" points="207.62,-224 64.88,-224 64.88,-204 207.62,-204 207.62,-224"/>
<text text-anchor="middle" x="136.25" y="-210.5" font-family="Helvetica,sans-Serif" font-size="10.00">tojhal/devices/ICM20602.hpp</text>
</a>
</g>
</g>
<!-- Node1&#45;&gt;Node2 -->
<g id="edge1_Node000001_Node000002" class="edge">
<title>Node1&#45;&gt;Node2</title>
<g id="a_edge1_Node000001_Node000002"><a xlink:title=" ">
<path fill="none" stroke="#63b8ff" d="M136.25,-259.59C136.25,-253.01 136.25,-243.96 136.25,-235.73"/>
<polygon fill="#63b8ff" stroke="#63b8ff" points="139.75,-235.81 136.25,-225.81 132.75,-235.81 139.75,-235.81"/>
</a>
</g>
</g>
<!-- Node3 -->
<g id="Node000003" class="node">
<title>Node3</title>
<g id="a_Node000003"><a xlink:href="IMU_8hpp.html" target="_top" xlink:title=" ">
<polygon fill="white" stroke="#666666" points="125.5,-162 9,-162 9,-142 125.5,-142 125.5,-162"/>
<text text-anchor="middle" x="67.25" y="-148.5" font-family="Helvetica,sans-Serif" font-size="10.00">tojhal/devices/IMU.hpp</text>
</a>
</g>
</g>
<!-- Node2&#45;&gt;Node3 -->
<g id="edge2_Node000002_Node000003" class="edge">
<title>Node2&#45;&gt;Node3</title>
<g id="a_edge2_Node000002_Node000003"><a xlink:title=" ">
<path fill="none" stroke="#63b8ff" d="M125.47,-203.62C114.98,-194.5 98.81,-180.45 86.18,-169.46"/>
<polygon fill="#63b8ff" stroke="#63b8ff" points="88.71,-167.03 78.87,-163.11 84.12,-172.31 88.71,-167.03"/>
</a>
</g>
</g>
<!-- Node5 -->
<g id="Node000005" class="node">
<title>Node5</title>
<g id="a_Node000005"><a xlink:href="I2C_8hpp.html" target="_top" xlink:title=" ">
<polygon fill="white" stroke="#666666" points="267.5,-168 145,-168 145,-136 267.5,-136 267.5,-168"/>
<text text-anchor="start" x="153" y="-154.5" font-family="Helvetica,sans-Serif" font-size="10.00">tojhal/comms_interfaces</text>
<text text-anchor="middle" x="206.25" y="-142.5" font-family="Helvetica,sans-Serif" font-size="10.00">/I2C.hpp</text>
</a>
</g>
</g>
<!-- Node2&#45;&gt;Node5 -->
<g id="edge4_Node000002_Node000005" class="edge">
<title>Node2&#45;&gt;Node5</title>
<g id="a_edge4_Node000002_Node000005"><a xlink:title=" ">
<path fill="none" stroke="#63b8ff" d="M147.19,-203.62C155.87,-196.19 168.37,-185.47 179.64,-175.81"/>
<polygon fill="#63b8ff" stroke="#63b8ff" points="181.85,-178.52 187.16,-169.36 177.29,-173.21 181.85,-178.52"/>
</a>
</g>
</g>
<!-- Node4 -->
<g id="Node000004" class="node">
<title>Node4</title>
<g id="a_Node000004"><a xlink:href="Device_8hpp.html" target="_top" xlink:title=" ">
<polygon fill="white" stroke="#666666" points="128.5,-94 0,-94 0,-74 128.5,-74 128.5,-94"/>
<text text-anchor="middle" x="64.25" y="-80.5" font-family="Helvetica,sans-Serif" font-size="10.00">tojhal/devices/Device.hpp</text>
</a>
</g>
</g>
<!-- Node3&#45;&gt;Node4 -->
<g id="edge3_Node000003_Node000004" class="edge">
<title>Node3&#45;&gt;Node4</title>
<g id="a_edge3_Node000003_Node000004"><a xlink:title=" ">
<path fill="none" stroke="#63b8ff" d="M66.82,-141.54C66.4,-132.23 65.74,-117.7 65.19,-105.7"/>
<polygon fill="#63b8ff" stroke="#63b8ff" points="68.7,-105.78 64.75,-95.95 61.71,-106.1 68.7,-105.78"/>
</a>
</g>
</g>
<!-- Node6 -->
<g id="Node000006" class="node">
<title>Node6</title>
<g id="a_Node000006"><a xlink:href="RegisterInterface_8hpp.html" target="_top" xlink:title=" ">
<polygon fill="white" stroke="#666666" points="269.5,-100 147,-100 147,-68 269.5,-68 269.5,-100"/>
<text text-anchor="start" x="155" y="-86.5" font-family="Helvetica,sans-Serif" font-size="10.00">tojhal/comms_interfaces</text>
<text text-anchor="middle" x="208.25" y="-74.5" font-family="Helvetica,sans-Serif" font-size="10.00">/RegisterInterface.hpp</text>
</a>
</g>
</g>
<!-- Node5&#45;&gt;Node6 -->
<g id="edge5_Node000005_Node000006" class="edge">
<title>Node5&#45;&gt;Node6</title>
<g id="a_edge5_Node000005_Node000006"><a xlink:title=" ">
<path fill="none" stroke="#63b8ff" d="M206.71,-135.69C206.93,-128.53 207.2,-119.79 207.44,-111.59"/>
<polygon fill="#63b8ff" stroke="#63b8ff" points="210.94,-111.84 207.74,-101.74 203.94,-111.63 210.94,-111.84"/>
</a>
</g>
</g>
<!-- Node7 -->
<g id="Node000007" class="node">
<title>Node7</title>
<g id="a_Node000007"><a xlink:title=" ">
<polygon fill="#e0e0e0" stroke="#999999" points="179.88,-26 134.62,-26 134.62,-6 179.88,-6 179.88,-26"/>
<text text-anchor="middle" x="157.25" y="-12.5" font-family="Helvetica,sans-Serif" font-size="10.00">cstdint</text>
</a>
</g>
</g>
<!-- Node6&#45;&gt;Node7 -->
<g id="edge6_Node000006_Node000007" class="edge">
<title>Node6&#45;&gt;Node7</title>
<g id="a_edge6_Node000006_Node000007"><a xlink:title=" ">
<path fill="none" stroke="#63b8ff" d="M196.42,-67.69C188.93,-58 179.2,-45.41 171.31,-35.2"/>
<polygon fill="#63b8ff" stroke="#63b8ff" points="174.26,-33.29 165.37,-27.51 168.72,-37.57 174.26,-33.29"/>
</a>
</g>
</g>
<!-- Node8 -->
<g id="Node000008" class="node">
<title>Node8</title>
<g id="a_Node000008"><a xlink:href="CommsInterface_8hpp.html" target="_top" xlink:title=" ">
<polygon fill="white" stroke="#666666" points="320.5,-32 198,-32 198,0 320.5,0 320.5,-32"/>
<text text-anchor="start" x="206" y="-18.5" font-family="Helvetica,sans-Serif" font-size="10.00">tojhal/comms_interfaces</text>
<text text-anchor="middle" x="259.25" y="-6.5" font-family="Helvetica,sans-Serif" font-size="10.00">/CommsInterface.hpp</text>
</a>
</g>
</g>
<!-- Node6&#45;&gt;Node8 -->
<g id="edge7_Node000006_Node000008" class="edge">
<title>Node6&#45;&gt;Node8</title>
<g id="a_edge7_Node000006_Node000008"><a xlink:title=" ">
<path fill="none" stroke="#63b8ff" d="M220.08,-67.69C226.13,-59.86 233.64,-50.15 240.46,-41.32"/>
<polygon fill="#63b8ff" stroke="#63b8ff" points="243.22,-43.48 246.56,-33.42 237.68,-39.2 243.22,-43.48"/>
</a>
</g>
</g>
</g>
</svg>
</svg>

<style type='text/css'>
<![CDATA[
[data-mouse-over-selected='false'] { opacity: 0.7; }
[data-mouse-over-selected='true']  { opacity: 1.0; }
]]>
</style>
<script type="application/ecmascript"><![CDATA[
document.addEventListener('DOMContentLoaded', (event) => {
  highlightEdges();
  highlightAdjacentNodes();
});
]]></script>
</svg>
