<?xml version="1.0" encoding="UTF-8" standalone="no"?>
<!DOCTYPE svg PUBLIC "-//W3C//DTD SVG 1.1//EN"
 "http://www.w3.org/Graphics/SVG/1.1/DTD/svg11.dtd">
<!-- Generated by graphviz version 12.2.1 (0)
 -->
<!-- Title: Graphical Class Hierarchy Pages: 1 -->
<svg width="307pt" height="90pt"
 viewBox="0.00 0.00 307.00 90.00" xmlns="http://www.w3.org/2000/svg" xmlns:xlink="http://www.w3.org/1999/xlink">
<g id="graph0" class="graph" transform="scale(1 1) rotate(0) translate(4 86)">
<title>Graphical Class Hierarchy</title>
<!-- Node0 -->
<g id="Node000000" class="node">
<title>Node0</title>
<g id="a_Node000000"><a xlink:href="classtojhal_1_1devices_1_1Device.html" target="_top" xlink:title="Abstract device class. Has utility methods and a communication interface.">
<polygon fill="white" stroke="#666666" points="115.75,-57 0,-57 0,-25 115.75,-25 115.75,-57"/>
<text text-anchor="start" x="8" y="-43.5" font-family="Helvetica,sans-Serif" font-size="10.00">tojhal::devices::Device</text>
<text text-anchor="middle" x="57.88" y="-31.5" font-family="Helvetica,sans-Serif" font-size="10.00">&lt; InterfaceT &gt;</text>
</a>
</g>
</g>
<!-- Node1 -->
<g id="Node000001" class="node">
<title>Node1</title>
<g id="a_Node000001"><a xlink:href="classtojhal_1_1devices_1_1EnvironmentalSensor.html" target="_top" xlink:title="Environmental sensor. Measures temperature, humidity and pressure.">
<polygon fill="white" stroke="#666666" points="299,-82 151.75,-82 151.75,-50 299,-50 299,-82"/>
<text text-anchor="start" x="159.75" y="-68.5" font-family="Helvetica,sans-Serif" font-size="10.00">tojhal::devices::Environmental</text>
<text text-anchor="middle" x="225.38" y="-56.5" font-family="Helvetica,sans-Serif" font-size="10.00">Sensor&lt; InterfaceT &gt;</text>
</a>
</g>
</g>
<!-- Node0&#45;&gt;Node1 -->
<g id="edge7_Node000000_Node000001" class="edge">
<title>Node0&#45;&gt;Node1</title>
<g id="a_edge7_Node000000_Node000001"><a xlink:title=" ">
<path fill="none" stroke="#63b8ff" d="M127.08,-51.3C135.14,-52.52 143.4,-53.77 151.53,-55"/>
<polygon fill="#63b8ff" stroke="#63b8ff" points="127.74,-47.86 117.33,-49.83 126.69,-54.78 127.74,-47.86"/>
</a>
</g>
</g>
<!-- Node2 -->
<g id="Node000002" class="node">
<title>Node2</title>
<g id="a_Node000002"><a xlink:href="classtojhal_1_1devices_1_1IMU.html" target="_top" xlink:title="Abstract Inertial Measurement Unit device.">
<polygon fill="white" stroke="#666666" points="277.25,-32 173.5,-32 173.5,0 277.25,0 277.25,-32"/>
<text text-anchor="start" x="181.5" y="-18.5" font-family="Helvetica,sans-Serif" font-size="10.00">tojhal::devices::IMU</text>
<text text-anchor="middle" x="225.38" y="-6.5" font-family="Helvetica,sans-Serif" font-size="10.00">&lt; InterfaceT &gt;</text>
</a>
</g>
</g>
<!-- Node0&#45;&gt;Node2 -->
<g id="edge8_Node000000_Node000002" class="edge">
<title>Node0&#45;&gt;Node2</title>
<g id="a_edge8_Node000000_Node000002"><a xlink:title=" ">
<path fill="none" stroke="#63b8ff" d="M126.92,-30.72C142.37,-28.39 158.52,-25.95 173.14,-23.74"/>
<polygon fill="#63b8ff" stroke="#63b8ff" points="126.69,-27.22 117.33,-32.17 127.74,-34.14 126.69,-27.22"/>
</a>
</g>
</g>
</g>
</svg>
