<?xml version="1.0" encoding="UTF-8" standalone="no"?>
<!DOCTYPE svg PUBLIC "-//W3C//DTD SVG 1.1//EN"
 "http://www.w3.org/Graphics/SVG/1.1/DTD/svg11.dtd">
<!-- Generated by graphviz version 12.2.1 (0)
 -->
<!-- Title: Graphical Class Hierarchy Pages: 1 -->
<svg width="479pt" height="52pt"
 viewBox="0.00 0.00 479.00 52.00" xmlns="http://www.w3.org/2000/svg" xmlns:xlink="http://www.w3.org/1999/xlink">
<g id="graph0" class="graph" transform="scale(1 1) rotate(0) translate(4 48)">
<title>Graphical Class Hierarchy</title>
<!-- Node0 -->
<g id="Node000000" class="node">
<title>Node0</title>
<g id="a_Node000000"><a xlink:href="classtojhal_1_1devices_1_1Device.html" target="_top" xlink:title=" ">
<polygon fill="white" stroke="#666666" points="134.5,-44 0,-44 0,0 134.5,0 134.5,-44"/>
<text text-anchor="start" x="8" y="-30.5" font-family="Helvetica,sans-Serif" font-size="10.00">tojhal::devices::Device</text>
<text text-anchor="start" x="8" y="-18.5" font-family="Helvetica,sans-Serif" font-size="10.00">&lt; tojhal::comms_interfaces</text>
<text text-anchor="middle" x="67.25" y="-6.5" font-family="Helvetica,sans-Serif" font-size="10.00">::I2C &gt;</text>
</a>
</g>
</g>
<!-- Node1 -->
<g id="Node000001" class="node">
<title>Node1</title>
<g id="a_Node000001"><a xlink:href="classtojhal_1_1devices_1_1IMU.html" target="_top" xlink:title=" ">
<polygon fill="white" stroke="#666666" points="305,-44 170.5,-44 170.5,0 305,0 305,-44"/>
<text text-anchor="start" x="178.5" y="-30.5" font-family="Helvetica,sans-Serif" font-size="10.00">tojhal::devices::IMU</text>
<text text-anchor="start" x="178.5" y="-18.5" font-family="Helvetica,sans-Serif" font-size="10.00">&lt; tojhal::comms_interfaces</text>
<text text-anchor="middle" x="237.75" y="-6.5" font-family="Helvetica,sans-Serif" font-size="10.00">::I2C &gt;</text>
</a>
</g>
</g>
<!-- Node0&#45;&gt;Node1 -->
<g id="edge9_Node000000_Node000001" class="edge">
<title>Node0&#45;&gt;Node1</title>
<g id="a_edge9_Node000000_Node000001"><a xlink:title=" ">
<path fill="none" stroke="#63b8ff" d="M146.1,-22C154.11,-22 162.21,-22 170.09,-22"/>
<polygon fill="#63b8ff" stroke="#63b8ff" points="146.36,-18.5 136.36,-22 146.36,-25.5 146.36,-18.5"/>
</a>
</g>
</g>
<!-- Node2 -->
<g id="Node000002" class="node">
<title>Node2</title>
<g id="a_Node000002"><a xlink:href="classtojhal_1_1devices_1_1ICM20602.html" target="_top" xlink:title=" ">
<polygon fill="white" stroke="#666666" points="471,-32 341,-32 341,-12 471,-12 471,-32"/>
<text text-anchor="middle" x="406" y="-18.5" font-family="Helvetica,sans-Serif" font-size="10.00">tojhal::devices::ICM20602</text>
</a>
</g>
</g>
<!-- Node1&#45;&gt;Node2 -->
<g id="edge10_Node000001_Node000002" class="edge">
<title>Node1&#45;&gt;Node2</title>
<g id="a_edge10_Node000001_Node000002"><a xlink:title=" ">
<path fill="none" stroke="#63b8ff" d="M316.72,-22C324.77,-22 332.88,-22 340.76,-22"/>
<polygon fill="#63b8ff" stroke="#63b8ff" points="316.93,-18.5 306.93,-22 316.93,-25.5 316.93,-18.5"/>
</a>
</g>
</g>
</g>
</svg>
