<?xml version="1.0" encoding="UTF-8" standalone="no"?>
<!DOCTYPE svg PUBLIC "-//W3C//DTD SVG 1.1//EN"
 "http://www.w3.org/Graphics/SVG/1.1/DTD/svg11.dtd">
<!-- Generated by graphviz version 12.2.1 (0)
 -->
<!-- Title: Graphical Class Hierarchy Pages: 1 -->
<svg width="505pt" height="40pt"
 viewBox="0.00 0.00 505.25 40.00" xmlns="http://www.w3.org/2000/svg" xmlns:xlink="http://www.w3.org/1999/xlink">
<g id="graph0" class="graph" transform="scale(1 1) rotate(0) translate(4 36)">
<title>Graphical Class Hierarchy</title>
<!-- Node0 -->
<g id="Node000000" class="node">
<title>Node0</title>
<g id="a_Node000000"><a xlink:href="classtojhal_1_1devices_1_1Device.html" target="_top" xlink:title=" ">
<polygon fill="white" stroke="#666666" points="136,-32 0,-32 0,0 136,0 136,-32"/>
<text text-anchor="start" x="8" y="-18.5" font-family="Helvetica,sans-Serif" font-size="10.00">tojhal::devices::Device</text>
<text text-anchor="middle" x="68" y="-6.5" font-family="Helvetica,sans-Serif" font-size="10.00">&lt; comms_interfaces::I2C &gt;</text>
</a>
</g>
</g>
<!-- Node1 -->
<g id="Node000001" class="node">
<title>Node1</title>
<g id="a_Node000001"><a xlink:href="classtojhal_1_1devices_1_1EnvironmentalSensor.html" target="_top" xlink:title=" ">
<polygon fill="white" stroke="#666666" points="338.75,-32 172,-32 172,0 338.75,0 338.75,-32"/>
<text text-anchor="start" x="180" y="-18.5" font-family="Helvetica,sans-Serif" font-size="10.00">tojhal::devices::Environmental</text>
<text text-anchor="middle" x="255.38" y="-6.5" font-family="Helvetica,sans-Serif" font-size="10.00">Sensor&lt; comms_interfaces::I2C &gt;</text>
</a>
</g>
</g>
<!-- Node0&#45;&gt;Node1 -->
<g id="edge5_Node000000_Node000001" class="edge">
<title>Node0&#45;&gt;Node1</title>
<g id="a_edge5_Node000000_Node000001"><a xlink:title=" ">
<path fill="none" stroke="#63b8ff" d="M147.91,-16C155.82,-16 163.87,-16 171.82,-16"/>
<polygon fill="#63b8ff" stroke="#63b8ff" points="147.96,-12.5 137.96,-16 147.96,-19.5 147.96,-12.5"/>
</a>
</g>
</g>
<!-- Node2 -->
<g id="Node000002" class="node">
<title>Node2</title>
<g id="a_Node000002"><a xlink:href="classtojhal_1_1devices_1_1BME280.html" target="_top" xlink:title="Bosch BME280 sensor interface.">
<polygon fill="white" stroke="#666666" points="497.25,-26 374.75,-26 374.75,-6 497.25,-6 497.25,-26"/>
<text text-anchor="middle" x="436" y="-12.5" font-family="Helvetica,sans-Serif" font-size="10.00">tojhal::devices::BME280</text>
</a>
</g>
</g>
<!-- Node1&#45;&gt;Node2 -->
<g id="edge6_Node000001_Node000002" class="edge">
<title>Node1&#45;&gt;Node2</title>
<g id="a_edge6_Node000001_Node000002"><a xlink:title=" ">
<path fill="none" stroke="#63b8ff" d="M350.57,-16C358.64,-16 366.66,-16 374.36,-16"/>
<polygon fill="#63b8ff" stroke="#63b8ff" points="350.66,-12.5 340.66,-16 350.66,-19.5 350.66,-12.5"/>
</a>
</g>
</g>
</g>
</svg>
