<?xml version="1.0" encoding="UTF-8" standalone="no"?>
<!DOCTYPE svg PUBLIC "-//W3C//DTD SVG 1.1//EN"
 "http://www.w3.org/Graphics/SVG/1.1/DTD/svg11.dtd">
<!-- Generated by graphviz version 12.2.1 (0)
 -->
<!-- Title: Graphical Class Hierarchy Pages: 1 -->
<svg width="478pt" height="90pt"
 viewBox="0.00 0.00 478.25 90.00" xmlns="http://www.w3.org/2000/svg" xmlns:xlink="http://www.w3.org/1999/xlink">
<g id="graph0" class="graph" transform="scale(1 1) rotate(0) translate(4 86)">
<title>Graphical Class Hierarchy</title>
<!-- Node0 -->
<g id="Node000000" class="node">
<title>Node0</title>
<g id="a_Node000000"><a xlink:href="classtojhal_1_1comms__interfaces_1_1CommsInterface.html" target="_top" xlink:title="Communications interface abstract class.">
<polygon fill="white" stroke="#666666" points="125.5,-57 0,-57 0,-25 125.5,-25 125.5,-57"/>
<text text-anchor="start" x="8" y="-43.5" font-family="Helvetica,sans-Serif" font-size="10.00">tojhal::comms_interfaces</text>
<text text-anchor="middle" x="62.75" y="-31.5" font-family="Helvetica,sans-Serif" font-size="10.00">::CommsInterface</text>
</a>
</g>
</g>
<!-- Node1 -->
<g id="Node000001" class="node">
<title>Node1</title>
<g id="a_Node000001"><a xlink:href="classtojhal_1_1comms__interfaces_1_1PubSubInterface.html" target="_top" xlink:title="Abstract pub/sub communication interface.">
<polygon fill="white" stroke="#666666" points="287,-82 161.5,-82 161.5,-50 287,-50 287,-82"/>
<text text-anchor="start" x="169.5" y="-68.5" font-family="Helvetica,sans-Serif" font-size="10.00">tojhal::comms_interfaces</text>
<text text-anchor="middle" x="224.25" y="-56.5" font-family="Helvetica,sans-Serif" font-size="10.00">::PubSubInterface</text>
</a>
</g>
</g>
<!-- Node0&#45;&gt;Node1 -->
<g id="edge1_Node000000_Node000001" class="edge">
<title>Node0&#45;&gt;Node1</title>
<g id="a_edge1_Node000000_Node000001"><a xlink:title=" ">
<path fill="none" stroke="#63b8ff" d="M137.09,-52.5C145.1,-53.75 153.18,-55.02 161.03,-56.25"/>
<polygon fill="#63b8ff" stroke="#63b8ff" points="137.79,-49.06 127.37,-50.97 136.71,-55.98 137.79,-49.06"/>
</a>
</g>
</g>
<!-- Node3 -->
<g id="Node000003" class="node">
<title>Node3</title>
<g id="a_Node000003"><a xlink:href="classtojhal_1_1comms__interfaces_1_1RegisterInterface.html" target="_top" xlink:title="Communication interface over registers. (Eg: I2C, SPI)">
<polygon fill="white" stroke="#666666" points="287,-32 161.5,-32 161.5,0 287,0 287,-32"/>
<text text-anchor="start" x="169.5" y="-18.5" font-family="Helvetica,sans-Serif" font-size="10.00">tojhal::comms_interfaces</text>
<text text-anchor="middle" x="224.25" y="-6.5" font-family="Helvetica,sans-Serif" font-size="10.00">::RegisterInterface</text>
</a>
</g>
</g>
<!-- Node0&#45;&gt;Node3 -->
<g id="edge3_Node000000_Node000003" class="edge">
<title>Node0&#45;&gt;Node3</title>
<g id="a_edge3_Node000000_Node000003"><a xlink:title=" ">
<path fill="none" stroke="#63b8ff" d="M137.09,-29.5C145.1,-28.25 153.18,-26.98 161.03,-25.75"/>
<polygon fill="#63b8ff" stroke="#63b8ff" points="136.71,-26.02 127.37,-31.03 137.79,-32.94 136.71,-26.02"/>
</a>
</g>
</g>
<!-- Node2 -->
<g id="Node000002" class="node">
<title>Node2</title>
<g id="a_Node000002"><a xlink:href="classtojhal_1_1comms__interfaces_1_1ZeroMQ.html" target="_top" xlink:title=" ">
<polygon fill="white" stroke="#666666" points="459.38,-82 333.88,-82 333.88,-50 459.38,-50 459.38,-82"/>
<text text-anchor="start" x="341.88" y="-68.5" font-family="Helvetica,sans-Serif" font-size="10.00">tojhal::comms_interfaces</text>
<text text-anchor="middle" x="396.62" y="-56.5" font-family="Helvetica,sans-Serif" font-size="10.00">::ZeroMQ</text>
</a>
</g>
</g>
<!-- Node1&#45;&gt;Node2 -->
<g id="edge2_Node000001_Node000002" class="edge">
<title>Node1&#45;&gt;Node2</title>
<g id="a_edge2_Node000001_Node000002"><a xlink:title=" ">
<path fill="none" stroke="#63b8ff" d="M298.68,-66C310.25,-66 322.11,-66 333.39,-66"/>
<polygon fill="#63b8ff" stroke="#63b8ff" points="298.75,-62.5 288.75,-66 298.75,-69.5 298.75,-62.5"/>
</a>
</g>
</g>
<!-- Node4 -->
<g id="Node000004" class="node">
<title>Node4</title>
<g id="a_Node000004"><a xlink:href="classtojhal_1_1comms__interfaces_1_1I2C.html" target="_top" xlink:title="I2C communication interface.">
<polygon fill="white" stroke="#666666" points="470.25,-26 323,-26 323,-6 470.25,-6 470.25,-26"/>
<text text-anchor="middle" x="396.62" y="-12.5" font-family="Helvetica,sans-Serif" font-size="10.00">tojhal::comms_interfaces::I2C</text>
</a>
</g>
</g>
<!-- Node3&#45;&gt;Node4 -->
<g id="edge4_Node000003_Node000004" class="edge">
<title>Node3&#45;&gt;Node4</title>
<g id="a_edge4_Node000003_Node000004"><a xlink:title=" ">
<path fill="none" stroke="#63b8ff" d="M298.74,-16C306.68,-16 314.75,-16 322.68,-16"/>
<polygon fill="#63b8ff" stroke="#63b8ff" points="298.75,-12.5 288.75,-16 298.75,-19.5 298.75,-12.5"/>
</a>
</g>
</g>
</g>
</svg>
